<?xml version="1.0" encoding="UTF-8" standalone="no"?>
<!-- Generator: Adobe Illustrator 16.0.0, SVG Export Plug-In . SVG Version: 6.00 Build 0)  -->

<svg
   xmlns:dc="http://purl.org/dc/elements/1.1/"
   xmlns:cc="http://creativecommons.org/ns#"
   xmlns:rdf="http://www.w3.org/1999/02/22-rdf-syntax-ns#"
   xmlns:svg="http://www.w3.org/2000/svg"
   xmlns="http://www.w3.org/2000/svg"
   xmlns:sodipodi="http://sodipodi.sourceforge.net/DTD/sodipodi-0.dtd"
   xmlns:inkscape="http://www.inkscape.org/namespaces/inkscape"
   version="1.1"
   viewBox="0 0 440.118 900.748"
   enable-background="new 0 0 440.118 900.748"
   xml:space="preserve"
   id="svg353"
   sodipodi:docname="GC50-00.svg"
   inkscape:version="0.92.2 (5c3e80d, 2017-08-06)"><metadata
     id="metadata359"><rdf:RDF><cc:Work
         rdf:about=""><dc:format>image/svg+xml</dc:format><dc:type
           rdf:resource="http://purl.org/dc/dcmitype/StillImage" /></cc:Work></rdf:RDF></metadata><defs
     id="defs357" /><sodipodi:namedview
     pagecolor="#ffffff"
     bordercolor="#666666"
     borderopacity="1"
     objecttolerance="10"
     gridtolerance="10"
     guidetolerance="10"
     inkscape:pageopacity="0"
     inkscape:pageshadow="2"
     inkscape:window-width="1246"
     inkscape:window-height="680"
     id="namedview355"
     showgrid="false"
     inkscape:zoom="0.26200447"
     inkscape:cx="220.05901"
     inkscape:cy="450.37399"
     inkscape:window-x="0"
     inkscape:window-y="0"
     inkscape:window-maximized="0"
     inkscape:current-layer="svg353" /><g
     id="MODULE"
     sodipodi:insensitive="true"><rect
       x="2.5"
       y="2.5"
       stroke-miterlimit="10"
       width="435.11801"
       height="895.74799"
       id="rect2"
       style="fill:#f2f2f2;stroke:#000000;stroke-width:5;stroke-miterlimit:10" /></g><g
     id="FILL"><path
       style="fill:#cccccc"
       d="m 87.008999,203.229 a 27.417,27.417 0 0 1 -27.417,27.417 27.417,27.417 0 0 1 -27.417,-27.417 27.417,27.417 0 0 1 27.417,-27.417 27.417,27.417 0 0 1 27.417,27.417 z"
       id="circle8"
       inkscape:connector-curvature="0" /><path
       style="fill:#cccccc"
       d="m 166.76099,201.832 a 27.417,27.417 0 0 1 -27.417,27.417 27.417,27.417 0 0 1 -27.417,-27.417 27.417,27.417 0 0 1 27.417,-27.417 27.417,27.417 0 0 1 27.417,27.417 z"
       id="circle10"
       inkscape:connector-curvature="0" /><path
       style="fill:#cccccc"
       d="m 226.76099,192.832 a 27.417,27.417 0 0 1 -27.417,27.417 27.417,27.417 0 0 1 -27.417,-27.417 27.417,27.417 0 0 1 27.417,-27.417 27.417,27.417 0 0 1 27.417,27.417 z"
       id="circle12"
       inkscape:connector-curvature="0" /><path
       style="fill:#cccccc"
       d="m 286.762,194.832 a 27.417,27.417 0 0 1 -27.417,27.417 27.417,27.417 0 0 1 -27.417,-27.417 27.417,27.417 0 0 1 27.417,-27.417 27.417,27.417 0 0 1 27.417,27.417 z"
       id="circle14"
       inkscape:connector-curvature="0" /><path
       style="fill:#cccccc"
       d="m 346.762,203.832 a 27.417,27.417 0 0 1 -27.417,27.417 27.417,27.417 0 0 1 -27.417,-27.417 27.417,27.417 0 0 1 27.417,-27.417 27.417,27.417 0 0 1 27.417,27.417 z"
       id="circle16"
       inkscape:connector-curvature="0" /><path
       style="fill:#cccccc"
       d="m 406.762,194.832 a 27.417,27.417 0 0 1 -27.417,27.417 27.417,27.417 0 0 1 -27.417,-27.417 27.417,27.417 0 0 1 27.417,-27.417 27.417,27.417 0 0 1 27.417,27.417 z"
       id="circle18"
       inkscape:connector-curvature="0" /><path
       style="fill:#cccccc"
       d="m 87.008999,305.229 a 27.417,27.417 0 0 1 -27.417,27.417 27.417,27.417 0 0 1 -27.417,-27.417 27.417,27.417 0 0 1 27.417,-27.417 27.417,27.417 0 0 1 27.417,27.417 z"
       id="circle20"
       inkscape:connector-curvature="0" /><path
       style="fill:#cccccc"
       d="m 166.76099,303.832 a 27.417,27.417 0 0 1 -27.417,27.417 27.417,27.417 0 0 1 -27.417,-27.417 27.417,27.417 0 0 1 27.417,-27.417 27.417,27.417 0 0 1 27.417,27.417 z"
       id="circle22"
       inkscape:connector-curvature="0" /><path
       style="fill:#cccccc"
       d="m 226.76099,294.832 a 27.417,27.417 0 0 1 -27.417,27.417 27.417,27.417 0 0 1 -27.417,-27.417 27.417,27.417 0 0 1 27.417,-27.417 27.417,27.417 0 0 1 27.417,27.417 z"
       id="circle24"
       inkscape:connector-curvature="0" /><path
       style="fill:#cccccc"
       d="m 286.762,296.832 a 27.417,27.417 0 0 1 -27.417,27.417 27.417,27.417 0 0 1 -27.417,-27.417 27.417,27.417 0 0 1 27.417,-27.417 27.417,27.417 0 0 1 27.417,27.417 z"
       id="circle26"
       inkscape:connector-curvature="0" /><path
       style="fill:#cccccc"
       d="m 346.762,305.832 a 27.417,27.417 0 0 1 -27.417,27.417 27.417,27.417 0 0 1 -27.417,-27.417 27.417,27.417 0 0 1 27.417,-27.417 27.417,27.417 0 0 1 27.417,27.417 z"
       id="circle28"
       inkscape:connector-curvature="0" /><path
       style="fill:#cccccc"
       d="m 406.762,296.832 a 27.417,27.417 0 0 1 -27.417,27.417 27.417,27.417 0 0 1 -27.417,-27.417 27.417,27.417 0 0 1 27.417,-27.417 27.417,27.417 0 0 1 27.417,27.417 z"
       id="circle30"
       inkscape:connector-curvature="0" /><path
       style="fill:#cccccc"
       d="m 87.008999,408.229 a 27.417,27.417 0 0 1 -27.417,27.417 27.417,27.417 0 0 1 -27.417,-27.417 27.417,27.417 0 0 1 27.417,-27.417 27.417,27.417 0 0 1 27.417,27.417 z"
       id="circle32"
       inkscape:connector-curvature="0" /><path
       style="fill:#cccccc"
       d="m 166.76099,406.832 a 27.417,27.417 0 0 1 -27.417,27.417 27.417,27.417 0 0 1 -27.417,-27.417 27.417,27.417 0 0 1 27.417,-27.417 27.417,27.417 0 0 1 27.417,27.417 z"
       id="circle34"
       inkscape:connector-curvature="0" /><path
       style="fill:#cccccc"
       d="m 226.76099,397.832 a 27.417,27.417 0 0 1 -27.417,27.417 27.417,27.417 0 0 1 -27.417,-27.417 27.417,27.417 0 0 1 27.417,-27.417 27.417,27.417 0 0 1 27.417,27.417 z"
       id="circle36"
       inkscape:connector-curvature="0" /><path
       style="fill:#cccccc"
       d="m 286.762,399.832 a 27.417,27.417 0 0 1 -27.417,27.417 27.417,27.417 0 0 1 -27.417,-27.417 27.417,27.417 0 0 1 27.417,-27.417 27.417,27.417 0 0 1 27.417,27.417 z"
       id="circle38"
       inkscape:connector-curvature="0" /><path
       style="fill:#cccccc"
       d="m 346.762,408.832 a 27.417,27.417 0 0 1 -27.417,27.417 27.417,27.417 0 0 1 -27.417,-27.417 27.417,27.417 0 0 1 27.417,-27.417 27.417,27.417 0 0 1 27.417,27.417 z"
       id="circle40"
       inkscape:connector-curvature="0" /><path
       style="fill:#cccccc"
       d="m 406.762,399.832 a 27.417,27.417 0 0 1 -27.417,27.417 27.417,27.417 0 0 1 -27.417,-27.417 27.417,27.417 0 0 1 27.417,-27.417 27.417,27.417 0 0 1 27.417,27.417 z"
       id="circle42"
       inkscape:connector-curvature="0" /><path
       style="fill:#cccccc"
       d="m 87.008999,511.229 a 27.417,27.417 0 0 1 -27.417,27.417 27.417,27.417 0 0 1 -27.417,-27.417 27.417,27.417 0 0 1 27.417,-27.417 27.417,27.417 0 0 1 27.417,27.417 z"
       id="circle44"
       inkscape:connector-curvature="0" /><path
       style="fill:#cccccc"
       d="m 166.76099,509.832 a 27.417,27.417 0 0 1 -27.417,27.417 27.417,27.417 0 0 1 -27.417,-27.417 27.417,27.417 0 0 1 27.417,-27.417 27.417,27.417 0 0 1 27.417,27.417 z"
       id="circle46"
       inkscape:connector-curvature="0" /><path
       style="fill:#cccccc"
       d="m 226.76099,500.832 a 27.417,27.417 0 0 1 -27.417,27.417 27.417,27.417 0 0 1 -27.417,-27.417 27.417,27.417 0 0 1 27.417,-27.417 27.417,27.417 0 0 1 27.417,27.417 z"
       id="circle48"
       inkscape:connector-curvature="0" /><path
       style="fill:#cccccc"
       d="m 286.762,502.832 a 27.417,27.417 0 0 1 -27.417,27.417 27.417,27.417 0 0 1 -27.417,-27.417 27.417,27.417 0 0 1 27.417,-27.417 27.417,27.417 0 0 1 27.417,27.417 z"
       id="circle50"
       inkscape:connector-curvature="0" /><path
       style="fill:#cccccc"
       d="m 346.762,511.832 a 27.417,27.417 0 0 1 -27.417,27.417 27.417,27.417 0 0 1 -27.417,-27.417 27.417,27.417 0 0 1 27.417,-27.417 27.417,27.417 0 0 1 27.417,27.417 z"
       id="circle52"
       inkscape:connector-curvature="0" /><path
       style="fill:#cccccc"
       d="m 406.762,502.832 a 27.417,27.417 0 0 1 -27.417,27.417 27.417,27.417 0 0 1 -27.417,-27.417 27.417,27.417 0 0 1 27.417,-27.417 27.417,27.417 0 0 1 27.417,27.417 z"
       id="circle54"
       inkscape:connector-curvature="0" /><path
       style="fill:#cccccc"
       d="m 87.008999,613.229 a 27.417,27.417 0 0 1 -27.417,27.417 27.417,27.417 0 0 1 -27.417,-27.417 27.417,27.417 0 0 1 27.417,-27.417 27.417,27.417 0 0 1 27.417,27.417 z"
       id="circle56"
       inkscape:connector-curvature="0" /><path
       style="fill:#cccccc"
       d="m 166.76099,611.83197 a 27.417,27.417 0 0 1 -27.417,27.417 27.417,27.417 0 0 1 -27.417,-27.417 27.417,27.417 0 0 1 27.417,-27.417 27.417,27.417 0 0 1 27.417,27.417 z"
       id="circle58"
       inkscape:connector-curvature="0" /><path
       style="fill:#cccccc"
       d="m 226.76099,602.83197 a 27.417,27.417 0 0 1 -27.417,27.417 27.417,27.417 0 0 1 -27.417,-27.417 27.417,27.417 0 0 1 27.417,-27.417 27.417,27.417 0 0 1 27.417,27.417 z"
       id="circle60"
       inkscape:connector-curvature="0" /><path
       style="fill:#cccccc"
       d="m 286.762,604.83197 a 27.417,27.417 0 0 1 -27.417,27.417 27.417,27.417 0 0 1 -27.417,-27.417 27.417,27.417 0 0 1 27.417,-27.417 27.417,27.417 0 0 1 27.417,27.417 z"
       id="circle62"
       inkscape:connector-curvature="0" /><path
       style="fill:#cccccc"
       d="m 346.762,613.83197 a 27.417,27.417 0 0 1 -27.417,27.417 27.417,27.417 0 0 1 -27.417,-27.417 27.417,27.417 0 0 1 27.417,-27.417 27.417,27.417 0 0 1 27.417,27.417 z"
       id="circle64"
       inkscape:connector-curvature="0" /><path
       style="fill:#cccccc"
       d="m 406.762,604.83197 a 27.417,27.417 0 0 1 -27.417,27.417 27.417,27.417 0 0 1 -27.417,-27.417 27.417,27.417 0 0 1 27.417,-27.417 27.417,27.417 0 0 1 27.417,27.417 z"
       id="circle66"
       inkscape:connector-curvature="0" /><path
       style="fill:#cccccc"
       d="m 87.008999,716.229 a 27.417,27.417 0 0 1 -27.417,27.417 27.417,27.417 0 0 1 -27.417,-27.417 27.417,27.417 0 0 1 27.417,-27.417 27.417,27.417 0 0 1 27.417,27.417 z"
       id="circle68"
       inkscape:connector-curvature="0" /><path
       style="fill:#cccccc"
       d="m 166.76099,714.83197 a 27.417,27.417 0 0 1 -27.417,27.417 27.417,27.417 0 0 1 -27.417,-27.417 27.417,27.417 0 0 1 27.417,-27.417 27.417,27.417 0 0 1 27.417,27.417 z"
       id="circle70"
       inkscape:connector-curvature="0" /><path
       style="fill:#cccccc"
       d="m 226.76099,705.83197 a 27.417,27.417 0 0 1 -27.417,27.417 27.417,27.417 0 0 1 -27.417,-27.417 27.417,27.417 0 0 1 27.417,-27.417 27.417,27.417 0 0 1 27.417,27.417 z"
       id="circle72"
       inkscape:connector-curvature="0" /><path
       style="fill:#cccccc"
       d="m 286.762,707.83197 a 27.417,27.417 0 0 1 -27.417,27.417 27.417,27.417 0 0 1 -27.417,-27.417 27.417,27.417 0 0 1 27.417,-27.417 27.417,27.417 0 0 1 27.417,27.417 z"
       id="circle74"
       inkscape:connector-curvature="0" /><path
       style="fill:#cccccc"
       d="m 346.762,716.83197 a 27.417,27.417 0 0 1 -27.417,27.417 27.417,27.417 0 0 1 -27.417,-27.417 27.417,27.417 0 0 1 27.417,-27.417 27.417,27.417 0 0 1 27.417,27.417 z"
       id="circle76"
       inkscape:connector-curvature="0" /><path
       style="fill:#cccccc"
       d="m 406.762,707.83197 a 27.417,27.417 0 0 1 -27.417,27.417 27.417,27.417 0 0 1 -27.417,-27.417 27.417,27.417 0 0 1 27.417,-27.417 27.417,27.417 0 0 1 27.417,27.417 z"
       id="circle78"
       inkscape:connector-curvature="0" /><path
       style="fill:#cccccc"
       d="M 84.09,107.249 A 23.667,23.667 0 0 1 60.423,130.916 23.667,23.667 0 0 1 36.756001,107.249 23.667,23.667 0 0 1 60.423,83.582001 23.667,23.667 0 0 1 84.09,107.249 Z"
       id="circle80"
       inkscape:connector-curvature="0" /><path
       style="fill:#cccccc"
       d="M 163.012,106.749 A 23.667,23.667 0 0 1 139.345,130.416 23.667,23.667 0 0 1 115.678,106.749 23.667,23.667 0 0 1 139.345,83.082001 23.667,23.667 0 0 1 163.012,106.749 Z"
       id="circle82"
       inkscape:connector-curvature="0" /><path
       style="fill:#cccccc"
       d="M 222.68999,96.749001 A 23.667,23.667 0 0 1 199.02299,120.416 23.667,23.667 0 0 1 175.356,96.749001 a 23.667,23.667 0 0 1 23.66699,-23.667 23.667,23.667 0 0 1 23.667,23.667 z"
       id="circle84"
       inkscape:connector-curvature="0" /><path
       style="fill:#cccccc"
       d="M 282.922,99.749001 A 23.667,23.667 0 0 1 259.255,123.416 23.667,23.667 0 0 1 235.58801,99.749001 a 23.667,23.667 0 0 1 23.66699,-23.667 23.667,23.667 0 0 1 23.667,23.667 z"
       id="circle86"
       inkscape:connector-curvature="0" /><path
       style="fill:#cccccc"
       d="m 403.75401,99.749001 a 23.667,23.667 0 0 1 -23.667,23.666999 23.667,23.667 0 0 1 -23.667,-23.666999 23.667,23.667 0 0 1 23.667,-23.667 23.667,23.667 0 0 1 23.667,23.667 z"
       id="circle88"
       inkscape:connector-curvature="0" /><path
       style="fill:#cccccc"
       d="m 343.62199,106.749 a 23.667,23.667 0 0 1 -23.667,23.667 23.667,23.667 0 0 1 -23.667,-23.667 23.667,23.667 0 0 1 23.667,-23.666999 23.667,23.667 0 0 1 23.667,23.666999 z"
       id="circle90"
       inkscape:connector-curvature="0" /></g><g
     id="PRODUCTS"
     sodipodi:insensitive="true"><circle
       stroke-miterlimit="10"
       cx="60.423"
       cy="107.249"
       r="23.667"
       id="circle93"
       style="fill:none;stroke:#000000;stroke-width:2;stroke-miterlimit:10" /><circle
       stroke-miterlimit="10"
       cx="59.591999"
       cy="203.229"
       r="27.417"
       id="circle95"
       style="fill:none;stroke:#000000;stroke-width:2;stroke-miterlimit:10" /><circle
       stroke-miterlimit="10"
       cx="139.345"
       cy="106.749"
       r="23.667"
       id="circle97"
       style="fill:none;stroke:#000000;stroke-width:2;stroke-miterlimit:10" /><circle
       stroke-miterlimit="10"
       cx="139.345"
       cy="106.749"
       r="16.323"
       id="circle99"
       style="fill:none;stroke:#000000;stroke-miterlimit:10" /><circle
       stroke-miterlimit="10"
       cx="139.345"
       cy="201.832"
       r="16.323"
       id="circle101"
       style="fill:none;stroke:#000000;stroke-miterlimit:10" /><circle
       stroke-miterlimit="10"
       cx="59.591999"
       cy="203.229"
       r="16.323"
       id="circle103"
       style="fill:none;stroke:#000000;stroke-miterlimit:10" /><circle
       stroke-miterlimit="10"
       cx="139.34399"
       cy="201.832"
       r="27.417"
       id="circle105"
       style="fill:none;stroke:#000000;stroke-width:2;stroke-miterlimit:10" /><circle
       stroke-miterlimit="10"
       cx="199.345"
       cy="192.832"
       r="16.323"
       id="circle107"
       style="fill:none;stroke:#000000;stroke-miterlimit:10" /><circle
       stroke-miterlimit="10"
       cx="259.345"
       cy="194.832"
       r="16.323"
       id="circle109"
       style="fill:none;stroke:#000000;stroke-miterlimit:10" /><circle
       stroke-miterlimit="10"
       cx="319.345"
       cy="203.832"
       r="16.323"
       id="circle111"
       style="fill:none;stroke:#000000;stroke-miterlimit:10" /><circle
       stroke-miterlimit="10"
       cx="199.34399"
       cy="192.832"
       r="27.417"
       id="circle113"
       style="fill:none;stroke:#000000;stroke-width:2;stroke-miterlimit:10" /><circle
       stroke-miterlimit="10"
       cx="259.345"
       cy="194.832"
       r="27.417"
       id="circle115"
       style="fill:none;stroke:#000000;stroke-width:2;stroke-miterlimit:10" /><circle
       stroke-miterlimit="10"
       cx="319.345"
       cy="203.832"
       r="27.417"
       id="circle117"
       style="fill:none;stroke:#000000;stroke-width:2;stroke-miterlimit:10" /><circle
       stroke-miterlimit="10"
       cx="379.345"
       cy="194.832"
       r="27.417"
       id="circle119"
       style="fill:none;stroke:#000000;stroke-width:2;stroke-miterlimit:10" /><circle
       stroke-miterlimit="10"
       cx="379.345"
       cy="194.832"
       r="16.323"
       id="circle121"
       style="fill:none;stroke:#000000;stroke-miterlimit:10" /><circle
       stroke-miterlimit="10"
       cx="59.591999"
       cy="305.229"
       r="27.417"
       id="circle123"
       style="fill:none;stroke:#000000;stroke-width:2;stroke-miterlimit:10" /><circle
       stroke-miterlimit="10"
       cx="139.345"
       cy="303.832"
       r="16.323"
       id="circle125"
       style="fill:none;stroke:#000000;stroke-miterlimit:10" /><circle
       stroke-miterlimit="10"
       cx="59.591999"
       cy="305.229"
       r="16.323"
       id="circle127"
       style="fill:none;stroke:#000000;stroke-miterlimit:10" /><circle
       stroke-miterlimit="10"
       cx="139.34399"
       cy="303.832"
       r="27.417"
       id="circle129"
       style="fill:none;stroke:#000000;stroke-width:2;stroke-miterlimit:10" /><circle
       stroke-miterlimit="10"
       cx="199.345"
       cy="294.832"
       r="16.323"
       id="circle131"
       style="fill:none;stroke:#000000;stroke-miterlimit:10" /><circle
       stroke-miterlimit="10"
       cx="259.345"
       cy="296.832"
       r="16.323"
       id="circle133"
       style="fill:none;stroke:#000000;stroke-miterlimit:10" /><circle
       stroke-miterlimit="10"
       cx="319.345"
       cy="305.832"
       r="16.323"
       id="circle135"
       style="fill:none;stroke:#000000;stroke-miterlimit:10" /><circle
       stroke-miterlimit="10"
       cx="199.34399"
       cy="294.832"
       r="27.417"
       id="circle137"
       style="fill:none;stroke:#000000;stroke-width:2;stroke-miterlimit:10" /><circle
       stroke-miterlimit="10"
       cx="259.345"
       cy="296.832"
       r="27.417"
       id="circle139"
       style="fill:none;stroke:#000000;stroke-width:2;stroke-miterlimit:10" /><circle
       stroke-miterlimit="10"
       cx="319.345"
       cy="305.832"
       r="27.417"
       id="circle141"
       style="fill:none;stroke:#000000;stroke-width:2;stroke-miterlimit:10" /><circle
       stroke-miterlimit="10"
       cx="379.345"
       cy="296.832"
       r="27.417"
       id="circle143"
       style="fill:none;stroke:#000000;stroke-width:2;stroke-miterlimit:10" /><circle
       stroke-miterlimit="10"
       cx="379.345"
       cy="296.832"
       r="16.323"
       id="circle145"
       style="fill:none;stroke:#000000;stroke-miterlimit:10" /><circle
       stroke-miterlimit="10"
       cx="59.591999"
       cy="408.229"
       r="27.417"
       id="circle147"
       style="fill:none;stroke:#000000;stroke-width:2;stroke-miterlimit:10" /><circle
       stroke-miterlimit="10"
       cx="139.345"
       cy="406.832"
       r="16.323"
       id="circle149"
       style="fill:none;stroke:#000000;stroke-miterlimit:10" /><circle
       stroke-miterlimit="10"
       cx="59.591999"
       cy="408.229"
       r="16.323"
       id="circle151"
       style="fill:none;stroke:#000000;stroke-miterlimit:10" /><circle
       stroke-miterlimit="10"
       cx="139.34399"
       cy="406.832"
       r="27.417"
       id="circle153"
       style="fill:none;stroke:#000000;stroke-width:2;stroke-miterlimit:10" /><circle
       stroke-miterlimit="10"
       cx="199.345"
       cy="397.832"
       r="16.323"
       id="circle155"
       style="fill:none;stroke:#000000;stroke-miterlimit:10" /><circle
       stroke-miterlimit="10"
       cx="259.345"
       cy="399.832"
       r="16.323"
       id="circle157"
       style="fill:none;stroke:#000000;stroke-miterlimit:10" /><circle
       stroke-miterlimit="10"
       cx="319.345"
       cy="408.832"
       r="16.323"
       id="circle159"
       style="fill:none;stroke:#000000;stroke-miterlimit:10" /><circle
       stroke-miterlimit="10"
       cx="199.34399"
       cy="397.832"
       r="27.417"
       id="circle161"
       style="fill:none;stroke:#000000;stroke-width:2;stroke-miterlimit:10" /><circle
       stroke-miterlimit="10"
       cx="259.345"
       cy="399.832"
       r="27.417"
       id="circle163"
       style="fill:none;stroke:#000000;stroke-width:2;stroke-miterlimit:10" /><circle
       stroke-miterlimit="10"
       cx="319.345"
       cy="408.832"
       r="27.417"
       id="circle165"
       style="fill:none;stroke:#000000;stroke-width:2;stroke-miterlimit:10" /><circle
       stroke-miterlimit="10"
       cx="379.345"
       cy="399.832"
       r="27.417"
       id="circle167"
       style="fill:none;stroke:#000000;stroke-width:2;stroke-miterlimit:10" /><circle
       stroke-miterlimit="10"
       cx="379.345"
       cy="399.832"
       r="16.323"
       id="circle169"
       style="fill:none;stroke:#000000;stroke-miterlimit:10" /><circle
       stroke-miterlimit="10"
       cx="59.591999"
       cy="511.229"
       r="27.417"
       id="circle171"
       style="fill:none;stroke:#000000;stroke-width:2;stroke-miterlimit:10" /><circle
       stroke-miterlimit="10"
       cx="139.345"
       cy="509.832"
       r="16.323"
       id="circle173"
       style="fill:none;stroke:#000000;stroke-miterlimit:10" /><circle
       stroke-miterlimit="10"
       cx="59.591999"
       cy="511.229"
       r="16.323"
       id="circle175"
       style="fill:none;stroke:#000000;stroke-miterlimit:10" /><circle
       stroke-miterlimit="10"
       cx="139.34399"
       cy="509.832"
       r="27.417"
       id="circle177"
       style="fill:none;stroke:#000000;stroke-width:2;stroke-miterlimit:10" /><circle
       stroke-miterlimit="10"
       cx="199.345"
       cy="500.832"
       r="16.323"
       id="circle179"
       style="fill:none;stroke:#000000;stroke-miterlimit:10" /><circle
       stroke-miterlimit="10"
       cx="259.345"
       cy="502.832"
       r="16.323"
       id="circle181"
       style="fill:none;stroke:#000000;stroke-miterlimit:10" /><circle
       stroke-miterlimit="10"
       cx="319.345"
       cy="511.832"
       r="16.323"
       id="circle183"
       style="fill:none;stroke:#000000;stroke-miterlimit:10" /><circle
       stroke-miterlimit="10"
       cx="199.34399"
       cy="500.832"
       r="27.417"
       id="circle185"
       style="fill:none;stroke:#000000;stroke-width:2;stroke-miterlimit:10" /><circle
       stroke-miterlimit="10"
       cx="259.345"
       cy="502.832"
       r="27.417"
       id="circle187"
       style="fill:none;stroke:#000000;stroke-width:2;stroke-miterlimit:10" /><circle
       stroke-miterlimit="10"
       cx="319.345"
       cy="511.832"
       r="27.417"
       id="circle189"
       style="fill:none;stroke:#000000;stroke-width:2;stroke-miterlimit:10" /><circle
       stroke-miterlimit="10"
       cx="379.345"
       cy="502.832"
       r="27.417"
       id="circle191"
       style="fill:none;stroke:#000000;stroke-width:2;stroke-miterlimit:10" /><circle
       stroke-miterlimit="10"
       cx="379.345"
       cy="502.832"
       r="16.323"
       id="circle193"
       style="fill:none;stroke:#000000;stroke-miterlimit:10" /><circle
       stroke-miterlimit="10"
       cx="59.591999"
       cy="613.229"
       r="27.417"
       id="circle195"
       style="fill:none;stroke:#000000;stroke-width:2;stroke-miterlimit:10" /><circle
       stroke-miterlimit="10"
       cx="139.345"
       cy="611.83197"
       r="16.323"
       id="circle197"
       style="fill:none;stroke:#000000;stroke-miterlimit:10" /><circle
       stroke-miterlimit="10"
       cx="59.591999"
       cy="613.229"
       r="16.323"
       id="circle199"
       style="fill:none;stroke:#000000;stroke-miterlimit:10" /><circle
       stroke-miterlimit="10"
       cx="139.34399"
       cy="611.83197"
       r="27.417"
       id="circle201"
       style="fill:none;stroke:#000000;stroke-width:2;stroke-miterlimit:10" /><circle
       stroke-miterlimit="10"
       cx="199.345"
       cy="602.83197"
       r="16.323"
       id="circle203"
       style="fill:none;stroke:#000000;stroke-miterlimit:10" /><circle
       stroke-miterlimit="10"
       cx="259.345"
       cy="604.83197"
       r="16.323"
       id="circle205"
       style="fill:none;stroke:#000000;stroke-miterlimit:10" /><circle
       stroke-miterlimit="10"
       cx="319.345"
       cy="613.83197"
       r="16.323"
       id="circle207"
       style="fill:none;stroke:#000000;stroke-miterlimit:10" /><circle
       stroke-miterlimit="10"
       cx="199.34399"
       cy="602.83197"
       r="27.417"
       id="circle209"
       style="fill:none;stroke:#000000;stroke-width:2;stroke-miterlimit:10" /><circle
       stroke-miterlimit="10"
       cx="259.345"
       cy="604.83197"
       r="27.417"
       id="circle211"
       style="fill:none;stroke:#000000;stroke-width:2;stroke-miterlimit:10" /><circle
       stroke-miterlimit="10"
       cx="319.345"
       cy="613.83197"
       r="27.417"
       id="circle213"
       style="fill:none;stroke:#000000;stroke-width:2;stroke-miterlimit:10" /><circle
       stroke-miterlimit="10"
       cx="379.345"
       cy="604.83197"
       r="27.417"
       id="circle215"
       style="fill:none;stroke:#000000;stroke-width:2;stroke-miterlimit:10" /><circle
       stroke-miterlimit="10"
       cx="379.345"
       cy="604.83197"
       r="16.323"
       id="circle217"
       style="fill:none;stroke:#000000;stroke-miterlimit:10" /><circle
       stroke-miterlimit="10"
       cx="59.591999"
       cy="716.229"
       r="27.417"
       id="circle219"
       style="fill:none;stroke:#000000;stroke-width:2;stroke-miterlimit:10" /><circle
       stroke-miterlimit="10"
       cx="139.345"
       cy="714.83197"
       r="16.323"
       id="circle221"
       style="fill:none;stroke:#000000;stroke-miterlimit:10" /><circle
       stroke-miterlimit="10"
       cx="59.591999"
       cy="716.229"
       r="16.323"
       id="circle223"
       style="fill:none;stroke:#000000;stroke-miterlimit:10" /><circle
       stroke-miterlimit="10"
       cx="139.34399"
       cy="714.83197"
       r="27.417"
       id="circle225"
       style="fill:none;stroke:#000000;stroke-width:2;stroke-miterlimit:10" /><circle
       stroke-miterlimit="10"
       cx="199.345"
       cy="705.83197"
       r="16.323"
       id="circle227"
       style="fill:none;stroke:#000000;stroke-miterlimit:10" /><circle
       stroke-miterlimit="10"
       cx="259.345"
       cy="707.83197"
       r="16.323"
       id="circle229"
       style="fill:none;stroke:#000000;stroke-miterlimit:10" /><circle
       stroke-miterlimit="10"
       cx="319.345"
       cy="716.83197"
       r="16.323"
       id="circle231"
       style="fill:none;stroke:#000000;stroke-miterlimit:10" /><circle
       stroke-miterlimit="10"
       cx="199.34399"
       cy="705.83197"
       r="27.417"
       id="circle233"
       style="fill:none;stroke:#000000;stroke-width:2;stroke-miterlimit:10" /><circle
       stroke-miterlimit="10"
       cx="259.345"
       cy="707.83197"
       r="27.417"
       id="circle235"
       style="fill:none;stroke:#000000;stroke-width:2;stroke-miterlimit:10" /><circle
       stroke-miterlimit="10"
       cx="319.345"
       cy="716.83197"
       r="27.417"
       id="circle237"
       style="fill:none;stroke:#000000;stroke-width:2;stroke-miterlimit:10" /><circle
       stroke-miterlimit="10"
       cx="379.345"
       cy="707.83197"
       r="27.417"
       id="circle239"
       style="fill:none;stroke:#000000;stroke-width:2;stroke-miterlimit:10" /><circle
       stroke-miterlimit="10"
       cx="379.345"
       cy="707.83197"
       r="16.323"
       id="circle241"
       style="fill:none;stroke:#000000;stroke-miterlimit:10" /><circle
       stroke-miterlimit="10"
       cx="60.423"
       cy="107.249"
       r="16.323"
       id="circle243"
       style="fill:none;stroke:#000000;stroke-miterlimit:10" /><circle
       stroke-miterlimit="10"
       cx="199.02299"
       cy="96.749001"
       r="16.323"
       id="circle245"
       style="fill:none;stroke:#000000;stroke-miterlimit:10" /><circle
       stroke-miterlimit="10"
       cx="259.345"
       cy="99.749001"
       r="16.323"
       id="circle247"
       style="fill:none;stroke:#000000;stroke-miterlimit:10" /><circle
       stroke-miterlimit="10"
       cx="380.08701"
       cy="99.749001"
       r="16.323"
       id="circle249"
       style="fill:none;stroke:#000000;stroke-miterlimit:10" /><circle
       stroke-miterlimit="10"
       cx="319.95499"
       cy="106.749"
       r="16.323"
       id="circle251"
       style="fill:none;stroke:#000000;stroke-miterlimit:10" /><circle
       stroke-miterlimit="10"
       cx="199.02299"
       cy="96.749001"
       r="23.667"
       id="circle253"
       style="fill:none;stroke:#000000;stroke-width:2;stroke-miterlimit:10" /><circle
       stroke-miterlimit="10"
       cx="259.255"
       cy="99.749001"
       r="23.667"
       id="circle255"
       style="fill:none;stroke:#000000;stroke-width:2;stroke-miterlimit:10" /><circle
       stroke-miterlimit="10"
       cx="380.08701"
       cy="99.749001"
       r="23.667"
       id="circle257"
       style="fill:none;stroke:#000000;stroke-width:2;stroke-miterlimit:10" /><circle
       stroke-miterlimit="10"
       cx="319.95499"
       cy="106.749"
       r="23.667"
       id="circle259"
       style="fill:none;stroke:#000000;stroke-width:2;stroke-miterlimit:10" /></g><g
     id="ETIQUETTE"
     sodipodi:insensitive="true"><rect
       x="4.5819998"
       y="755.255"
       stroke-miterlimit="10"
       width="430.95401"
       height="136.388"
       id="rect262"
       style="fill:#ffffff;stroke:#000000;stroke-width:2;stroke-miterlimit:10" /></g><g
     id="TEXTE_ETIQUETTE"
     sodipodi:insensitive="true"><text
       transform="translate(278.3564,885.6484)"
       font-size="21"
       id="text265"
       style="font-size:21px;font-family:ArialMT;fill:#474747">SPH12GC50-00</text>
<text
       transform="translate(62.8887,797.082)"
       id="text273"><tspan
         x="0"
         y="0"
         font-size="24"
         id="tspan267"
         style="font-size:24px;font-family:ArialMT">HIGH PRECISION EYELINER - </tspan><tspan
         x="41.332001"
         y="28.799999"
         font-size="24"
         id="tspan269"
         style="font-size:24px;font-family:ArialMT">COLORFUL EYELINER </tspan><tspan
         x="75.362999"
         y="57.599998"
         font-size="24"
         id="tspan271"
         style="font-size:24px;font-family:ArialMT">WATERPROOF A</tspan></text>
</g><g
     id="DECOR_STATIQUE"
     sodipodi:insensitive="true"><path
       stroke-miterlimit="10"
       d="m 171.486,203.832 c -2.085,0 -3.933,1 -5.105,2.541 0.246,-1.478 0.381,-2.993 0.381,-4.54 0,-4.169 -0.935,-8.119 -2.6,-11.657 0.889,0.467 1.9,0.734 2.974,0.734 2.127,0 4.008,-1.04 5.175,-2.634 -0.249,1.483 -0.384,3.004 -0.384,4.558 0,4.227 0.958,8.229 2.666,11.804 -0.921,-0.513 -1.979,-0.806 -3.107,-0.806 z"
       id="path276"
       inkscape:connector-curvature="0"
       style="stroke:#000000;stroke-width:2;stroke-miterlimit:10" /><path
       stroke-miterlimit="10"
       d="m 229.23,200.982 c -1.646,0 -3.142,0.625 -4.277,1.643 1.165,-3.042 1.809,-6.342 1.809,-9.793 0,-2.536 -0.352,-4.988 -0.995,-7.318 1.146,1.072 2.683,1.734 4.377,1.734 1.122,0 2.176,-0.29 3.094,-0.795 -0.848,2.642 -1.31,5.457 -1.31,8.38 0,2.539 0.353,4.994 0.998,7.327 -1.045,-0.74 -2.319,-1.178 -3.696,-1.178 z"
       id="path278"
       inkscape:connector-curvature="0"
       style="stroke:#000000;stroke-width:2;stroke-miterlimit:10" /><path
       stroke-miterlimit="10"
       d="m 288.243,205.164 c -1.603,0 -3.065,0.592 -4.189,1.563 1.735,-3.598 2.708,-7.633 2.708,-11.895 0,-1.301 -0.097,-2.58 -0.272,-3.833 1.115,0.935 2.551,1.5 4.12,1.5 2.045,0 3.862,-0.959 5.037,-2.45 -2.36,4.05 -3.719,8.756 -3.719,13.783 0,0.875 0.045,1.74 0.126,2.594 -1.067,-0.79 -2.382,-1.262 -3.811,-1.262 z"
       id="path280"
       inkscape:connector-curvature="0"
       style="stroke:#000000;stroke-width:2;stroke-miterlimit:10" /><path
       stroke-miterlimit="10"
       d="m 351.927,205.376 c -2.406,0 -4.5,1.326 -5.598,3.286 0.278,-1.569 0.433,-3.181 0.433,-4.83 0,-4.634 -1.154,-8.997 -3.184,-12.824 1.119,0.952 2.567,1.529 4.152,1.529 1.759,0 3.351,-0.708 4.51,-1.854 -0.205,1.353 -0.313,2.738 -0.313,4.148 0,3.903 0.82,7.612 2.291,10.973 -0.712,-0.272 -1.483,-0.428 -2.291,-0.428 z"
       id="path282"
       inkscape:connector-curvature="0"
       style="stroke:#000000;stroke-width:2;stroke-miterlimit:10" /><circle
       stroke-miterlimit="10"
       cx="60.59"
       cy="205.582"
       r="32.417"
       id="circle284"
       style="fill:none;stroke:#000000;stroke-width:4;stroke-miterlimit:10" /><ellipse
       stroke-miterlimit="10"
       cx="60.59"
       cy="104.893"
       rx="29.292"
       ry="28.816"
       id="ellipse286"
       style="fill:none;stroke:#000000;stroke-width:4;stroke-miterlimit:10" /><path
       stroke-miterlimit="10"
       d="m 139.345,171.248 c 0,0 37.821,-9.333 61.655,-9.333 81.922,0 77.903,10.5 139.665,10.5 22.356,0 26.168,-7.833 38.68,-7.833 23.988,0 34.738,16.25 34.738,30.25 0,5.058 -2.3,23.17 -17.916,31.75 -20.289,11.148 -56.897,12.26 -76.822,10 -35.261,-4 -65.179,-10.083 -114.678,-10.083 -27.167,0 -55.144,10.167 -65.322,10.167 -10.178,0 -32.095,-7.995 -32.095,-34.039 0,-26.044 32.095,-31.379 32.095,-31.379 z"
       id="path288"
       inkscape:connector-curvature="0"
       style="fill:none;stroke:#000000;stroke-width:4;stroke-miterlimit:10" /><path
       stroke-miterlimit="10"
       d="m 171.486,305.832 c -2.085,0 -3.933,1 -5.105,2.541 0.246,-1.478 0.381,-2.993 0.381,-4.54 0,-4.169 -0.935,-8.119 -2.6,-11.657 0.889,0.467 1.9,0.734 2.974,0.734 2.127,0 4.008,-1.04 5.175,-2.634 -0.249,1.483 -0.384,3.004 -0.384,4.558 0,4.227 0.958,8.229 2.666,11.804 -0.921,-0.513 -1.979,-0.806 -3.107,-0.806 z"
       id="path290"
       inkscape:connector-curvature="0"
       style="stroke:#000000;stroke-width:2;stroke-miterlimit:10" /><path
       stroke-miterlimit="10"
       d="m 229.23,302.982 c -1.646,0 -3.142,0.625 -4.277,1.643 1.165,-3.042 1.809,-6.342 1.809,-9.793 0,-2.536 -0.352,-4.988 -0.995,-7.318 1.146,1.072 2.683,1.734 4.377,1.734 1.122,0 2.176,-0.29 3.094,-0.795 -0.848,2.642 -1.31,5.457 -1.31,8.38 0,2.539 0.353,4.994 0.998,7.327 -1.045,-0.74 -2.319,-1.178 -3.696,-1.178 z"
       id="path292"
       inkscape:connector-curvature="0"
       style="stroke:#000000;stroke-width:2;stroke-miterlimit:10" /><path
       stroke-miterlimit="10"
       d="m 288.243,307.164 c -1.603,0 -3.065,0.592 -4.189,1.563 1.735,-3.598 2.708,-7.633 2.708,-11.895 0,-1.301 -0.097,-2.58 -0.272,-3.833 1.115,0.935 2.551,1.5 4.12,1.5 2.045,0 3.862,-0.959 5.037,-2.45 -2.36,4.05 -3.719,8.756 -3.719,13.783 0,0.875 0.045,1.74 0.126,2.594 -1.067,-0.79 -2.382,-1.262 -3.811,-1.262 z"
       id="path294"
       inkscape:connector-curvature="0"
       style="stroke:#000000;stroke-width:2;stroke-miterlimit:10" /><path
       stroke-miterlimit="10"
       d="m 351.927,307.376 c -2.406,0 -4.5,1.326 -5.598,3.286 0.278,-1.569 0.433,-3.181 0.433,-4.83 0,-4.634 -1.154,-8.997 -3.184,-12.824 1.119,0.952 2.567,1.529 4.152,1.529 1.759,0 3.351,-0.708 4.51,-1.854 -0.205,1.353 -0.313,2.738 -0.313,4.148 0,3.903 0.82,7.612 2.291,10.973 -0.712,-0.272 -1.483,-0.428 -2.291,-0.428 z"
       id="path296"
       inkscape:connector-curvature="0"
       style="stroke:#000000;stroke-width:2;stroke-miterlimit:10" /><circle
       stroke-miterlimit="10"
       cx="60.59"
       cy="307.582"
       r="32.417"
       id="circle298"
       style="fill:none;stroke:#000000;stroke-width:4;stroke-miterlimit:10" /><path
       stroke-miterlimit="10"
       d="m 139.345,273.248 c 0,0 37.821,-9.333 61.655,-9.333 81.922,0 77.903,10.5 139.665,10.5 22.356,0 26.168,-7.833 38.68,-7.833 23.988,0 34.738,16.25 34.738,30.25 0,5.058 -2.3,23.17 -17.916,31.75 -20.289,11.148 -56.897,12.26 -76.822,10 -35.261,-4 -65.179,-10.083 -114.678,-10.083 -27.167,0 -55.144,10.167 -65.322,10.167 -10.178,0 -32.095,-7.995 -32.095,-34.039 0,-26.044 32.095,-31.379 32.095,-31.379 z"
       id="path300"
       inkscape:connector-curvature="0"
       style="fill:none;stroke:#000000;stroke-width:4;stroke-miterlimit:10" /><path
       stroke-miterlimit="10"
       d="m 171.486,408.832 c -2.085,0 -3.933,1 -5.105,2.541 0.246,-1.478 0.381,-2.993 0.381,-4.54 0,-4.169 -0.935,-8.119 -2.6,-11.657 0.889,0.467 1.9,0.734 2.974,0.734 2.127,0 4.008,-1.04 5.175,-2.634 -0.249,1.483 -0.384,3.004 -0.384,4.558 0,4.227 0.958,8.229 2.666,11.804 -0.921,-0.513 -1.979,-0.806 -3.107,-0.806 z"
       id="path302"
       inkscape:connector-curvature="0"
       style="stroke:#000000;stroke-width:2;stroke-miterlimit:10" /><path
       stroke-miterlimit="10"
       d="m 229.23,405.982 c -1.646,0 -3.142,0.625 -4.277,1.643 1.165,-3.042 1.809,-6.342 1.809,-9.793 0,-2.536 -0.352,-4.988 -0.995,-7.318 1.146,1.072 2.683,1.734 4.377,1.734 1.122,0 2.176,-0.29 3.094,-0.795 -0.848,2.642 -1.31,5.457 -1.31,8.38 0,2.539 0.353,4.994 0.998,7.327 -1.045,-0.74 -2.319,-1.178 -3.696,-1.178 z"
       id="path304"
       inkscape:connector-curvature="0"
       style="stroke:#000000;stroke-width:2;stroke-miterlimit:10" /><path
       stroke-miterlimit="10"
       d="m 288.243,410.164 c -1.603,0 -3.065,0.592 -4.189,1.563 1.735,-3.598 2.708,-7.633 2.708,-11.895 0,-1.301 -0.097,-2.58 -0.272,-3.833 1.115,0.935 2.551,1.5 4.12,1.5 2.045,0 3.862,-0.959 5.037,-2.45 -2.36,4.05 -3.719,8.756 -3.719,13.783 0,0.875 0.045,1.74 0.126,2.594 -1.067,-0.79 -2.382,-1.262 -3.811,-1.262 z"
       id="path306"
       inkscape:connector-curvature="0"
       style="stroke:#000000;stroke-width:2;stroke-miterlimit:10" /><path
       stroke-miterlimit="10"
       d="m 351.927,410.376 c -2.406,0 -4.5,1.326 -5.598,3.286 0.278,-1.569 0.433,-3.181 0.433,-4.83 0,-4.634 -1.154,-8.997 -3.184,-12.824 1.119,0.952 2.567,1.529 4.152,1.529 1.759,0 3.351,-0.708 4.51,-1.854 -0.205,1.353 -0.313,2.738 -0.313,4.148 0,3.903 0.82,7.612 2.291,10.973 -0.712,-0.272 -1.483,-0.428 -2.291,-0.428 z"
       id="path308"
       inkscape:connector-curvature="0"
       style="stroke:#000000;stroke-width:2;stroke-miterlimit:10" /><circle
       stroke-miterlimit="10"
       cx="60.59"
       cy="409.582"
       r="32.417"
       id="circle310"
       style="fill:none;stroke:#000000;stroke-width:4;stroke-miterlimit:10" /><path
       stroke-miterlimit="10"
       d="m 139.345,375.248 c 0,0 37.821,-9.333 61.655,-9.333 81.922,0 77.903,10.5 139.665,10.5 22.356,0 26.168,-7.833 38.68,-7.833 23.988,0 34.738,16.25 34.738,30.25 0,5.058 -2.3,23.17 -17.916,31.75 -20.289,11.148 -56.897,12.26 -76.822,10 -35.261,-4 -65.179,-10.083 -114.678,-10.083 -27.167,0 -55.144,10.167 -65.322,10.167 -10.178,0 -32.095,-7.995 -32.095,-34.039 0,-26.044 32.095,-31.379 32.095,-31.379 z"
       id="path312"
       inkscape:connector-curvature="0"
       style="fill:none;stroke:#000000;stroke-width:4;stroke-miterlimit:10" /><path
       stroke-miterlimit="10"
       d="m 171.486,511.832 c -2.085,0 -3.933,0.999 -5.105,2.54 0.246,-1.478 0.381,-2.993 0.381,-4.54 0,-4.17 -0.935,-8.119 -2.6,-11.657 0.889,0.467 1.9,0.733 2.974,0.733 2.127,0 4.008,-1.039 5.175,-2.634 -0.249,1.483 -0.384,3.004 -0.384,4.558 0,4.227 0.958,8.229 2.666,11.804 -0.921,-0.511 -1.979,-0.804 -3.107,-0.804 z"
       id="path314"
       inkscape:connector-curvature="0"
       style="stroke:#000000;stroke-width:2;stroke-miterlimit:10" /><path
       stroke-miterlimit="10"
       d="m 229.23,508.982 c -1.646,0 -3.142,0.625 -4.277,1.643 1.165,-3.042 1.809,-6.342 1.809,-9.793 0,-2.535 -0.352,-4.988 -0.995,-7.318 1.146,1.072 2.683,1.734 4.377,1.734 1.122,0 2.176,-0.29 3.094,-0.796 -0.848,2.642 -1.31,5.456 -1.31,8.38 0,2.539 0.353,4.994 0.998,7.326 -1.045,-0.738 -2.319,-1.176 -3.696,-1.176 z"
       id="path316"
       inkscape:connector-curvature="0"
       style="stroke:#000000;stroke-width:2;stroke-miterlimit:10" /><path
       stroke-miterlimit="10"
       d="m 288.243,513.164 c -1.603,0 -3.065,0.592 -4.189,1.563 1.735,-3.598 2.708,-7.633 2.708,-11.895 0,-1.301 -0.097,-2.58 -0.272,-3.833 1.115,0.935 2.551,1.5 4.12,1.5 2.045,0 3.862,-0.96 5.037,-2.45 -2.36,4.051 -3.719,8.757 -3.719,13.783 0,0.875 0.045,1.74 0.126,2.594 -1.067,-0.789 -2.382,-1.262 -3.811,-1.262 z"
       id="path318"
       inkscape:connector-curvature="0"
       style="stroke:#000000;stroke-width:2;stroke-miterlimit:10" /><path
       stroke-miterlimit="10"
       d="m 351.927,513.377 c -2.406,0 -4.5,1.326 -5.598,3.285 0.278,-1.568 0.433,-3.182 0.433,-4.83 0,-4.634 -1.154,-8.996 -3.184,-12.824 1.119,0.953 2.567,1.529 4.152,1.529 1.759,0 3.351,-0.708 4.51,-1.854 -0.205,1.354 -0.313,2.738 -0.313,4.148 0,3.902 0.82,7.612 2.291,10.973 -0.712,-0.272 -1.483,-0.427 -2.291,-0.427 z"
       id="path320"
       inkscape:connector-curvature="0"
       style="stroke:#000000;stroke-width:2;stroke-miterlimit:10" /><circle
       stroke-miterlimit="10"
       cx="60.59"
       cy="511.582"
       r="32.417"
       id="circle322"
       style="fill:none;stroke:#000000;stroke-width:4;stroke-miterlimit:10" /><path
       stroke-miterlimit="10"
       d="m 139.345,477.248 c 0,0 37.821,-9.334 61.655,-9.334 81.922,0 77.903,10.5 139.665,10.5 22.356,0 26.168,-7.832 38.68,-7.832 23.988,0 34.738,16.25 34.738,30.25 0,5.058 -2.3,23.17 -17.916,31.75 -20.289,11.147 -56.897,12.26 -76.822,10 -35.261,-4 -65.179,-10.084 -114.678,-10.084 -27.167,0 -55.144,10.166 -65.322,10.166 -10.178,0 -32.095,-7.994 -32.095,-34.039 0,-26.043 32.095,-31.377 32.095,-31.377 z"
       id="path324"
       inkscape:connector-curvature="0"
       style="fill:none;stroke:#000000;stroke-width:4;stroke-miterlimit:10" /><path
       stroke-miterlimit="10"
       d="m 171.486,613.832 c -2.085,0 -3.933,0.999 -5.105,2.54 0.246,-1.478 0.381,-2.993 0.381,-4.54 0,-4.17 -0.935,-8.119 -2.6,-11.657 0.889,0.467 1.9,0.733 2.974,0.733 2.127,0 4.008,-1.039 5.175,-2.634 -0.249,1.483 -0.384,3.004 -0.384,4.558 0,4.227 0.958,8.229 2.666,11.804 -0.921,-0.511 -1.979,-0.804 -3.107,-0.804 z"
       id="path326"
       inkscape:connector-curvature="0"
       style="stroke:#000000;stroke-width:2;stroke-miterlimit:10" /><path
       stroke-miterlimit="10"
       d="m 229.23,610.982 c -1.646,0 -3.142,0.625 -4.277,1.643 1.165,-3.042 1.809,-6.342 1.809,-9.793 0,-2.535 -0.352,-4.988 -0.995,-7.318 1.146,1.072 2.683,1.734 4.377,1.734 1.122,0 2.176,-0.29 3.094,-0.796 -0.848,2.642 -1.31,5.456 -1.31,8.38 0,2.539 0.353,4.994 0.998,7.326 -1.045,-0.738 -2.319,-1.176 -3.696,-1.176 z"
       id="path328"
       inkscape:connector-curvature="0"
       style="stroke:#000000;stroke-width:2;stroke-miterlimit:10" /><path
       stroke-miterlimit="10"
       d="m 288.243,615.164 c -1.603,0 -3.065,0.592 -4.189,1.563 1.735,-3.598 2.708,-7.633 2.708,-11.895 0,-1.301 -0.097,-2.58 -0.272,-3.833 1.115,0.935 2.551,1.5 4.12,1.5 2.045,0 3.862,-0.96 5.037,-2.45 -2.36,4.051 -3.719,8.757 -3.719,13.783 0,0.875 0.045,1.74 0.126,2.594 -1.067,-0.789 -2.382,-1.262 -3.811,-1.262 z"
       id="path330"
       inkscape:connector-curvature="0"
       style="stroke:#000000;stroke-width:2;stroke-miterlimit:10" /><path
       stroke-miterlimit="10"
       d="m 351.927,615.377 c -2.406,0 -4.5,1.326 -5.598,3.285 0.278,-1.568 0.433,-3.182 0.433,-4.83 0,-4.634 -1.154,-8.996 -3.184,-12.824 1.119,0.953 2.567,1.529 4.152,1.529 1.759,0 3.351,-0.708 4.51,-1.854 -0.205,1.354 -0.313,2.738 -0.313,4.148 0,3.902 0.82,7.612 2.291,10.973 -0.712,-0.272 -1.483,-0.427 -2.291,-0.427 z"
       id="path332"
       inkscape:connector-curvature="0"
       style="stroke:#000000;stroke-width:2;stroke-miterlimit:10" /><circle
       stroke-miterlimit="10"
       cx="60.59"
       cy="613.58197"
       r="32.417"
       id="circle334"
       style="fill:none;stroke:#000000;stroke-width:4;stroke-miterlimit:10" /><path
       stroke-miterlimit="10"
       d="m 139.345,579.248 c 0,0 37.821,-9.334 61.655,-9.334 81.922,0 77.903,10.5 139.665,10.5 22.356,0 26.168,-7.832 38.68,-7.832 23.988,0 34.738,16.25 34.738,30.25 0,5.058 -2.3,23.17 -17.916,31.75 -20.289,11.147 -56.897,12.26 -76.822,10 -35.261,-4 -65.179,-10.084 -114.678,-10.084 -27.167,0 -55.144,10.166 -65.322,10.166 -10.178,0 -32.095,-7.994 -32.095,-34.039 0,-26.043 32.095,-31.377 32.095,-31.377 z"
       id="path336"
       inkscape:connector-curvature="0"
       style="fill:none;stroke:#000000;stroke-width:4;stroke-miterlimit:10" /><path
       stroke-miterlimit="10"
       d="m 171.486,716.832 c -2.085,0 -3.933,0.999 -5.105,2.54 0.246,-1.478 0.381,-2.993 0.381,-4.54 0,-4.17 -0.935,-8.119 -2.6,-11.657 0.889,0.467 1.9,0.733 2.974,0.733 2.127,0 4.008,-1.039 5.175,-2.634 -0.249,1.483 -0.384,3.004 -0.384,4.558 0,4.227 0.958,8.229 2.666,11.804 -0.921,-0.511 -1.979,-0.804 -3.107,-0.804 z"
       id="path338"
       inkscape:connector-curvature="0"
       style="stroke:#000000;stroke-width:2;stroke-miterlimit:10" /><path
       stroke-miterlimit="10"
       d="m 229.23,713.982 c -1.646,0 -3.142,0.625 -4.277,1.643 1.165,-3.042 1.809,-6.342 1.809,-9.793 0,-2.535 -0.352,-4.988 -0.995,-7.318 1.146,1.072 2.683,1.734 4.377,1.734 1.122,0 2.176,-0.29 3.094,-0.796 -0.848,2.642 -1.31,5.456 -1.31,8.38 0,2.539 0.353,4.994 0.998,7.326 -1.045,-0.738 -2.319,-1.176 -3.696,-1.176 z"
       id="path340"
       inkscape:connector-curvature="0"
       style="stroke:#000000;stroke-width:2;stroke-miterlimit:10" /><path
       stroke-miterlimit="10"
       d="m 288.243,718.164 c -1.603,0 -3.065,0.592 -4.189,1.563 1.735,-3.598 2.708,-7.633 2.708,-11.895 0,-1.301 -0.097,-2.58 -0.272,-3.833 1.115,0.935 2.551,1.5 4.12,1.5 2.045,0 3.862,-0.96 5.037,-2.45 -2.36,4.051 -3.719,8.757 -3.719,13.783 0,0.875 0.045,1.74 0.126,2.594 -1.067,-0.789 -2.382,-1.262 -3.811,-1.262 z"
       id="path342"
       inkscape:connector-curvature="0"
       style="stroke:#000000;stroke-width:2;stroke-miterlimit:10" /><path
       stroke-miterlimit="10"
       d="m 351.927,718.377 c -2.406,0 -4.5,1.326 -5.598,3.285 0.278,-1.568 0.433,-3.182 0.433,-4.83 0,-4.634 -1.154,-8.996 -3.184,-12.824 1.119,0.953 2.567,1.529 4.152,1.529 1.759,0 3.351,-0.708 4.51,-1.854 -0.205,1.354 -0.313,2.738 -0.313,4.148 0,3.902 0.82,7.612 2.291,10.973 -0.712,-0.272 -1.483,-0.427 -2.291,-0.427 z"
       id="path344"
       inkscape:connector-curvature="0"
       style="stroke:#000000;stroke-width:2;stroke-miterlimit:10" /><circle
       stroke-miterlimit="10"
       cx="60.59"
       cy="715.58197"
       r="32.417"
       id="circle346"
       style="fill:none;stroke:#000000;stroke-width:4;stroke-miterlimit:10" /><path
       stroke-miterlimit="10"
       d="m 139.345,681.248 c 0,0 37.821,-9.334 61.655,-9.334 81.922,0 77.903,10.5 139.665,10.5 22.356,0 26.168,-7.832 38.68,-7.832 23.988,0 34.738,16.25 34.738,30.25 0,5.058 -2.3,23.17 -17.916,31.75 -20.289,11.147 -56.897,12.26 -76.822,10 -35.261,-4 -65.179,-10.084 -114.678,-10.084 -27.167,0 -55.144,10.166 -65.322,10.166 -10.178,0 -32.095,-7.994 -32.095,-34.039 0,-26.043 32.095,-31.377 32.095,-31.377 z"
       id="path348"
       inkscape:connector-curvature="0"
       style="fill:none;stroke:#000000;stroke-width:4;stroke-miterlimit:10" /><path
       stroke-miterlimit="10"
       d="m 141.856,72.507 c 0,0 36.931,-8.592 60.203,-8.592 79.993,0 76.069,9.667 136.377,9.667 21.83,0 25.552,-7.211 37.77,-7.211 23.423,0 33.92,14.961 33.92,27.85 0,4.657 -2.246,21.332 -17.495,29.232 -19.811,10.263 -55.557,11.288 -75.012,9.207 -34.433,-3.683 -63.646,-9.284 -111.979,-9.284 -26.527,0 -53.845,9.36 -63.783,9.36 -9.939,0 -31.339,-7.361 -31.339,-31.339 -0.001,-23.979 31.338,-28.89 31.338,-28.89 z"
       id="path350"
       inkscape:connector-curvature="0"
       style="fill:none;stroke:#000000;stroke-width:4;stroke-miterlimit:10" /></g></svg>