<svg xmlns="http://www.w3.org/2000/svg" viewBox="0 0 40 40">
    <title>comments_active</title>
    <g id="icon">
        <rect x="0.46" y="0.46" width="39.09" height="39.09" rx="1.6" fill="#fff" opacity="0"/>
        <rect x="0.46" y="0.46" width="39.09" height="39.09" rx="1.6" fill="none" stroke="#fff" stroke-miterlimit="10" stroke-width="0.98"/>
        <g>
            <path d="M9.6,25.81H8.17l1-1a7.08,7.08,0,0,0,1.91-3.45c-3.15-1.57-5-4.11-5-6.87,0-4.63,5.3-8.4,11.82-8.4s11.81,3.77,11.81,8.4-5.3,8.4-11.81,8.4A17.11,17.11,0,0,1,16,22.77,8.25,8.25,0,0,1,9.6,25.81ZM17.9,7.27C12,7.27,7.27,10.5,7.27,14.48c0,2.4,1.77,4.64,4.73,6l.41.19-.07.45A8.21,8.21,0,0,1,11,24.49a7.09,7.09,0,0,0,4.3-2.7l.21-.28.34,0a15.87,15.87,0,0,0,2.07.13c5.86,0,10.63-3.23,10.63-7.21S23.76,7.27,17.9,7.27Z" fill="#515151"/>
            <path d="M32.49,33.92H31.06a6.48,6.48,0,0,1-5-2.35,13.33,13.33,0,0,1-1.41.08c-5.11,0-9.28-3-9.28-6.64a5.28,5.28,0,0,1,1.08-3.11l.19-.26.33,0c.31,0,.63,0,.95,0a12.68,12.68,0,0,0,8.55-3l.21-.2.3.05c4.09.75,7,3.39,7,6.42,0,2.16-1.43,4.15-3.86,5.39a5.39,5.39,0,0,0,1.42,2.51Zm-5.93-3.61.21.28a5.3,5.3,0,0,0,2.93,2,6.52,6.52,0,0,1-.89-2.39l-.08-.45.41-.19c2.25-1,3.59-2.71,3.59-4.52,0-2.38-2.33-4.49-5.71-5.2a14,14,0,0,1-9.12,3.07l-.69,0A3.88,3.88,0,0,0,16.54,25c0,3,3.63,5.46,8.09,5.46a12,12,0,0,0,1.59-.11Z" fill="#515151"/>
            <circle cx="14.29" cy="14.6" r="0.82" fill="#515151"/>
            <circle cx="17.9" cy="14.6" r="0.82" fill="#515151"/>
            <circle cx="21.5" cy="14.6" r="0.82" fill="#515151"/>
        </g>
    </g>
</svg>
