<svg xmlns="http://www.w3.org/2000/svg" viewBox="0 0 40 40"><title>Henry-icons</title><g id="toolbar"><rect width="40" height="40" rx="1.6" fill="#6d6c6c"/><path d="M8.47,25.48H7l1-1A7.06,7.06,0,0,0,10,21c-3.14-1.57-5-4.11-5-6.87,0-4.63,5.3-8.4,11.81-8.4s11.81,3.77,11.81,8.4-5.3,8.4-11.81,8.4a16.79,16.79,0,0,1-1.88-.11A8.23,8.23,0,0,1,8.47,25.48ZM16.76,6.94c-5.86,0-10.63,3.23-10.63,7.21,0,2.4,1.77,4.65,4.74,6l.41.18-.07.45a8.3,8.3,0,0,1-1.37,3.38,7.07,7.07,0,0,0,4.3-2.7l.21-.28.35.05a15.72,15.72,0,0,0,2.06.14c5.86,0,10.63-3.24,10.63-7.22S22.62,6.94,16.76,6.94Z" fill="#fff" stroke="#fff" stroke-miterlimit="10" stroke-width="0.5"/><path d="M31.35,33.59H29.92a6.54,6.54,0,0,1-5-2.34,13,13,0,0,1-1.4.07c-5.12,0-9.28-3-9.28-6.64a5.22,5.22,0,0,1,1.08-3.11l.19-.26.32,0c.31,0,.63,0,1,0a12.66,12.66,0,0,0,8.55-3l.22-.2.29.05c4.1.75,7,3.39,7,6.42,0,2.16-1.43,4.15-3.85,5.4a5.31,5.31,0,0,0,1.41,2.5ZM25.42,30l.21.28a5.37,5.37,0,0,0,2.93,2,6.45,6.45,0,0,1-.89-2.39l-.07-.45L28,29.2c2.25-1,3.59-2.71,3.59-4.52,0-2.38-2.34-4.49-5.71-5.2a14,14,0,0,1-9.13,3.07l-.69,0a4,4,0,0,0-.67,2.15c0,3,3.63,5.46,8.1,5.46A11.87,11.87,0,0,0,25.08,30Z" fill="#fff" stroke="#fff" stroke-miterlimit="10" stroke-width="0.5"/><circle cx="13.16" cy="14.27" r="0.82" fill="#fff" stroke="#fff" stroke-miterlimit="10" stroke-width="0.5"/><circle cx="16.76" cy="14.27" r="0.82" fill="#fff" stroke="#fff" stroke-miterlimit="10" stroke-width="0.5"/><circle cx="20.36" cy="14.27" r="0.82" fill="#fff" stroke="#fff" stroke-miterlimit="10" stroke-width="0.5"/></g></svg>