<svg xmlns="http://www.w3.org/2000/svg" viewBox="0 0 40 40"><title>free pos</title><g id="toolbar"><rect width="40" height="40" rx="1.6" fill="#6d6c6c"/><circle cx="19.84" cy="19.83" r="3.24" fill="none" stroke="#fff" stroke-miterlimit="10"/><path d="M33.31,19.32h-4.4a9.09,9.09,0,0,0-8.56-8.56V6.35h-1v4.41a9.08,9.08,0,0,0-8.55,8.56H6.36v1h4.41a9.09,9.09,0,0,0,8.55,8.56v4.4h1V28.9a9.1,9.1,0,0,0,8.56-8.56h4.4Zm-13.47,8.1a7.6,7.6,0,1,1,7.59-7.59A7.6,7.6,0,0,1,19.84,27.42Z" fill="none" stroke="#fff" stroke-miterlimit="10"/><path d="M10.61,4h-6a.55.55,0,0,0-.54.55V11" fill="none" stroke="#fff" stroke-miterlimit="10"/><path d="M35.89,10.75V4.8a.55.55,0,0,0-.54-.55H28.82" fill="none" stroke="#fff" stroke-miterlimit="10"/><path d="M29.39,36h6a.55.55,0,0,0,.54-.55V29" fill="none" stroke="#fff" stroke-miterlimit="10"/><path d="M4.11,29.25v6a.55.55,0,0,0,.54.55h6.53" fill="none" stroke="#fff" stroke-miterlimit="10"/></g></svg>