<svg xmlns="http://www.w3.org/2000/svg" viewBox="0 0 41 41"><title>free pos</title><g id="toolbar"><rect x="0.5" y="0.5" width="40" height="40" rx="1.6" fill="#e8e8e8" stroke="#fff" stroke-miterlimit="10"/><circle cx="20.34" cy="20.33" r="3.24" fill="#3a3a3a"/><path d="M33.81,19.82h-4.4a9.09,9.09,0,0,0-8.56-8.56V6.85h-1v4.41a9.08,9.08,0,0,0-8.55,8.56H6.86v1h4.41a9.09,9.09,0,0,0,8.55,8.56v4.4h1V29.4a9.1,9.1,0,0,0,8.56-8.56h4.4Zm-13.47,8.1a7.6,7.6,0,1,1,7.59-7.59A7.6,7.6,0,0,1,20.34,27.92Z" fill="#3a3a3a"/><path d="M11.11,4.46h-6A.55.55,0,0,0,4.61,5v6.53" fill="none" stroke="#3a3a3a" stroke-miterlimit="10"/><path d="M36.39,11.25V5.3a.55.55,0,0,0-.54-.55H29.32" fill="none" stroke="#3a3a3a" stroke-miterlimit="10"/><path d="M29.89,36.54h6a.55.55,0,0,0,.54-.55V29.46" fill="none" stroke="#3a3a3a" stroke-miterlimit="10"/><path d="M4.61,29.75v6a.55.55,0,0,0,.54.55h6.53" fill="none" stroke="#3a3a3a" stroke-miterlimit="10"/></g></svg>