<svg xmlns="http://www.w3.org/2000/svg" viewBox="0 0 40 40"><title>Henry-icons</title><g id="toolbar"><rect width="40" height="40" rx="1.6" fill="#6d6c6c"/><path d="M27.46,17H23.08a.07.07,0,0,1-.07-.08v-2.7a.09.09,0,0,0-.08-.08H12.54a.08.08,0,0,0-.07.08V23a.07.07,0,0,0,.07.07h4.39a.08.08,0,0,1,.07.08v2.71a.07.07,0,0,0,.08.07H27.46a.08.08,0,0,0,.08-.07V17A.08.08,0,0,0,27.46,17Zm-14,5.14a.08.08,0,0,1-.07-.08V15.1a.07.07,0,0,1,.07-.07H22a.07.07,0,0,1,.07.07V22a.08.08,0,0,1-.07.08Zm13.17,2.78a.07.07,0,0,1-.07.08H18a.07.07,0,0,1-.07-.08V23.1A.08.08,0,0,1,18,23h4.94A.08.08,0,0,0,23,23V18a.08.08,0,0,1,.07-.08h3.47a.08.08,0,0,1,.07.08Z" fill="#fff" stroke="#fff" stroke-miterlimit="10" stroke-width="0.5"/><path d="M32.11,13.51V9H27.57v1.86H12.44V9H7.89v4.55H9.07v13H7.89V31h4.55V29.18H27.57V31h4.54V26.49H30.93v-13ZM9.25,10.32h1.83v1.83H9.25Zm1.83,19.36H9.24V27.84h1.84Zm16.49-1.86H12.44V26.49h-2v-13h2V12.18H27.57v1.33h2v13h-2Zm3.19,1.86H28.92V27.84h1.84Zm0-17.53H28.92V10.32h1.84Z" fill="#fff" stroke="#fff" stroke-miterlimit="10" stroke-width="0.5"/></g></svg>