<svg xmlns="http://www.w3.org/2000/svg" viewBox="0 0 40 40">
    <title>group_active</title>
    <g id="toolbar">
        <path d="M27.46,17H23.08A.07.07,0,0,1,23,16.9V14.19a.09.09,0,0,0-.08-.08H12.54a.09.09,0,0,0-.08.08V23a.08.08,0,0,0,.08.07h4.38a.08.08,0,0,1,.08.08v2.71a.08.08,0,0,0,.07.08H27.46a.09.09,0,0,0,.08-.08V17.05A.08.08,0,0,0,27.46,17Zm-14,5.14a.07.07,0,0,1-.07-.08V15.1a.07.07,0,0,1,.07-.07H22a.07.07,0,0,1,.07.07V22a.07.07,0,0,1-.07.08ZM26.62,24.9a.07.07,0,0,1-.07.07H18a.08.08,0,0,1-.08-.07V23.1A.09.09,0,0,1,18,23h4.94A.08.08,0,0,0,23,23V18a.07.07,0,0,1,.07-.07h3.47a.07.07,0,0,1,.07.07Z" fill="#3a3a3a"/>
        <path d="M32.11,13.51V9H27.57v1.86H12.44V9H7.89v4.55H9.07v13H7.89V31h4.55V29.18H27.57V31h4.54V26.49H30.93v-13ZM9.25,10.32h1.83v1.83H9.25Zm1.83,19.36H9.24V27.84h1.84Zm16.49-1.86H12.44V26.49h-2v-13h2V12.18H27.57v1.33h2v13h-2Zm3.19,1.86H28.92V27.84h1.84Zm0-17.53H28.92V10.32h1.84Z" fill="#3a3a3a"/>
    </g>
    <g id="icon">
        <rect x="0.46" y="0.46" width="39.09" height="39.09" rx="1.6" fill="#fff" opacity="0"/>
        <rect x="0.46" y="0.46" width="39.09" height="39.09" rx="1.6" fill="none" stroke="#fff" stroke-miterlimit="10" stroke-width="0.98"/>
    </g>
</svg>
