<svg xmlns="http://www.w3.org/2000/svg" viewBox="0 0 41 41"><title>Henry-icons</title><g id="toolbar"><rect x="0.5" y="0.5" width="40" height="40" rx="1.6" fill="#e8e8e8" stroke="#fff" stroke-miterlimit="10"/><path d="M28,17.47H23.58a.07.07,0,0,1-.07-.08v-2.7a.09.09,0,0,0-.08-.08H13a.08.08,0,0,0-.07.08v8.76a.07.07,0,0,0,.07.07h4.39a.08.08,0,0,1,.07.08v2.71a.07.07,0,0,0,.08.07H28a.08.08,0,0,0,.08-.07V17.54A.08.08,0,0,0,28,17.47ZM14,22.61a.08.08,0,0,1-.07-.08V15.6a.07.07,0,0,1,.07-.07h8.57a.07.07,0,0,1,.07.07v6.93a.08.08,0,0,1-.07.08Zm13.17,2.78a.07.07,0,0,1-.07.08H18.49a.07.07,0,0,1-.07-.08V23.6a.08.08,0,0,1,.07-.08h4.94a.08.08,0,0,0,.08-.07v-5a.08.08,0,0,1,.07-.08h3.47a.08.08,0,0,1,.07.08Z" fill="#3a3a3a"/><path d="M32.61,14V9.46H28.07v1.86H12.94V9.46H8.39V14H9.57V27H8.39v4.55h4.55V29.68H28.07v1.86h4.54V27H31.43V14ZM9.75,10.82h1.83v1.83H9.75Zm1.83,19.36H9.74V28.34h1.84Zm16.49-1.86H12.94V27h-2V14h2V12.68H28.07V14h2V27h-2Zm3.19,1.86H29.42V28.34h1.84Zm0-17.53H29.42V10.82h1.84Z" fill="#3a3a3a"/></g></svg>