<svg xmlns="http://www.w3.org/2000/svg" viewBox="0 0 41 41"><title>layers</title><g id="toolbar"><rect x="0.5" y="0.5" width="40" height="40" rx="1.6" fill="#e8e8e8" stroke="#fff" stroke-miterlimit="10"/><g id="layers_on" data-name="layers on"><path d="M34,21a.67.67,0,0,0-.37-.59L28,17.52l5.69-2.88a.66.66,0,0,0,0-1.15L19.88,6.55a.68.68,0,0,0-.59,0L5.52,13.49a.66.66,0,0,0,0,1.15l5.71,2.88L5.52,20.43a.65.65,0,0,0-.37.59.63.63,0,0,0,.37.59l5.7,2.85L5.51,27.38a.66.66,0,0,0-.36.59.63.63,0,0,0,.37.59L19.29,35.5a1,1,0,0,0,.29.07.73.73,0,0,0,.3-.07l13.78-6.94A.67.67,0,0,0,34,28a.69.69,0,0,0-.37-.59L28,24.46l5.7-2.89A.67.67,0,0,0,34,21ZM7.28,14.05l12.3-6.17,12.27,6.17L19.58,20.3Zm19.23,4.21L31.85,21,19.58,27.25,7.28,21l5.42-2.71,6.59,3.33a.68.68,0,0,0,.59,0Zm-13.83,7,6.6,3.34a.7.7,0,0,0,.6,0l6.61-3.34,5.36,2.7L19.58,34.2,7.28,27.93Z" fill="#515151"/></g></g></svg>