<svg xmlns="http://www.w3.org/2000/svg" viewBox="0 0 40 40"><title>layers</title><g id="toolbar"><rect width="40" height="40" rx="1.6" fill="#6d6c6c"/><g id="layers_on" data-name="layers on"><path d="M33.53,20.49a.67.67,0,0,0-.37-.59L27.47,17l5.69-2.88a.66.66,0,0,0,0-1.15L19.38,6.05a.68.68,0,0,0-.59,0L5,13a.66.66,0,0,0,0,1.15L10.73,17,5,19.93a.65.65,0,0,0-.37.59.63.63,0,0,0,.37.59L10.72,24,5,26.88a.66.66,0,0,0-.36.59.63.63,0,0,0,.37.59L18.79,35a1,1,0,0,0,.29.07.73.73,0,0,0,.3-.07l13.78-6.94a.67.67,0,0,0,.37-.59.69.69,0,0,0-.37-.59L27.46,24l5.7-2.89A.67.67,0,0,0,33.53,20.49ZM6.78,13.55l12.3-6.17,12.27,6.17L19.08,19.8ZM26,17.76l5.34,2.73L19.08,26.75,6.78,20.49l5.42-2.71,6.59,3.33a.68.68,0,0,0,.59,0Zm-13.83,7,6.6,3.34a.7.7,0,0,0,.6,0L26,24.73l5.36,2.7L19.08,33.7,6.78,27.43Z" fill="#fff" stroke="#fff" stroke-miterlimit="10" stroke-width="0.5"/></g></g></svg>