<svg xmlns="http://www.w3.org/2000/svg" viewBox="0 0 41 41"><title>library</title><g id="toolbar"><rect x="0.5" y="0.5" width="40" height="40" rx="1.6" fill="#e8e8e8" stroke="#fff" stroke-miterlimit="10"/><polygon points="29.63 4.26 11.81 4.26 9.27 6.8 32.17 6.8 29.63 4.26" fill="#3a3a3a"/><path d="M8,8.07V17H33.45V8.07Zm17.81,5.1v1.27H24.54V13.17H16.9v1.27H15.63V11.89H25.81Z" fill="#3a3a3a"/><path d="M8,27.16H33.45v-8.9H8Zm7.63-3.81V22.07H25.81v2.55H24.54V23.35H16.9v1.27H15.63Z" fill="#3a3a3a"/><path d="M8,37.34H33.45v-8.9H8Zm7.63-3.81V32.25H25.81V34.8H24.54V33.53H16.9V34.8H15.63Z" fill="#3a3a3a"/></g></svg>