<svg xmlns="http://www.w3.org/2000/svg" viewBox="0 0 40 40"><title>lock</title><g id="toolbar"><rect width="40" height="40" rx="1.6" fill="#6d6c6c"/><path d="M27.8,17.59V14.67A7.69,7.69,0,0,0,20.11,7h-.22a7.69,7.69,0,0,0-7.69,7.69v2.92a2.2,2.2,0,0,0-1.35,2v11.2A2.19,2.19,0,0,0,13,33H27a2.19,2.19,0,0,0,2.19-2.2V19.62A2.2,2.2,0,0,0,27.8,17.59Zm-6.53,7.74v2.21a1.27,1.27,0,0,1-2.54,0V25.33a2.07,2.07,0,1,1,2.54,0Zm-6.51-7.91V14.67a5.13,5.13,0,0,1,5.13-5.13h.22a5.13,5.13,0,0,1,5.13,5.13v2.75Z" fill="none" stroke="#fff" stroke-miterlimit="10"/></g></svg>