<svg xmlns="http://www.w3.org/2000/svg" viewBox="0 0 41 41"><title>Henry-icons</title><g id="toolbar"><rect x="0.5" y="0.5" width="40" height="40" rx="1.6" fill="#e8e8e8" stroke="#fff" stroke-miterlimit="10"/><path d="M28.3,18.09V15.17a7.69,7.69,0,0,0-7.69-7.69h-.22a7.69,7.69,0,0,0-7.69,7.69v2.92s-1.35,1.11-1.35,2v11.2a2.19,2.19,0,0,0,2.19,2.2H27.46a2.19,2.19,0,0,0,2.19-2.2V20.12A2.2,2.2,0,0,0,28.3,18.09Zm-6.53,7.74V28a1.27,1.27,0,0,1-2.54,0V25.83a2.07,2.07,0,1,1,2.54,0Zm-6.51-7.91V15.17A5.13,5.13,0,0,1,20.39,10h.22a5.13,5.13,0,0,1,5.13,5.13v2.75Z" fill="none" stroke="#3a3a3a" stroke-miterlimit="10"/></g></svg>