<svg xmlns="http://www.w3.org/2000/svg" viewBox="0 0 41 41"><title>Henry-icons</title><g id="toolbar"><rect x="0.5" y="0.5" width="40" height="40" rx="1.6" fill="#e8e8e8" stroke="#fff" stroke-miterlimit="10"/><path d="M28.53,8.7H14.71a1.91,1.91,0,0,0-1.31.62c-.61.61-2.5,2.59-3.09,3.23a2.09,2.09,0,0,0-.59,1.33V31.27A1.72,1.72,0,0,0,11.43,33h17.1a1.72,1.72,0,0,0,1.71-1.71V10.41A1.72,1.72,0,0,0,28.53,8.7ZM14,10v2.59a.56.56,0,0,1-.56.55H11Zm15.1,21.25a.56.56,0,0,1-.56.55H11.43a.55.55,0,0,1-.55-.55V14.32h2.55a1.72,1.72,0,0,0,1.71-1.71V9.85H28.53a.57.57,0,0,1,.56.56Z" fill="#515151"/><path d="M27.18,15.74H12.78a.6.6,0,0,0-.63.56.6.6,0,0,0,.63.57h14.4a.6.6,0,0,0,.63-.57A.6.6,0,0,0,27.18,15.74Z" fill="#515151"/><path d="M27.18,18.36H12.78a.6.6,0,0,0-.63.56.6.6,0,0,0,.63.57h14.4a.6.6,0,0,0,.63-.57A.6.6,0,0,0,27.18,18.36Z" fill="#515151"/><path d="M27.18,21H12.78a.6.6,0,0,0-.63.56.6.6,0,0,0,.63.57h14.4a.6.6,0,0,0,.63-.57A.6.6,0,0,0,27.18,21Z" fill="#515151"/><path d="M27.18,23.74H12.78a.56.56,0,1,0,0,1.12h14.4a.56.56,0,1,0,0-1.12Z" fill="#515151"/><path d="M21.15,26.48H12.78a.57.57,0,1,0,0,1.13h8.37a.57.57,0,1,0,0-1.13Z" fill="#515151"/></g></svg>