<svg xmlns="http://www.w3.org/2000/svg" viewBox="0 0 40 40"><title>Henry-icons</title><g id="toolbar"><rect width="40" height="40" rx="1.6" fill="#6d6c6c"/><path d="M28,8.2H14.21a1.91,1.91,0,0,0-1.31.62c-.61.61-2.5,2.59-3.09,3.23a2.09,2.09,0,0,0-.59,1.33V30.77a1.72,1.72,0,0,0,1.71,1.71H28a1.72,1.72,0,0,0,1.71-1.71V9.91A1.72,1.72,0,0,0,28,8.2ZM13.49,9.52v2.59a.56.56,0,0,1-.56.55H10.47Zm15.1,21.25a.56.56,0,0,1-.56.55H10.93a.55.55,0,0,1-.55-.55V13.82h2.55a1.72,1.72,0,0,0,1.71-1.71V9.35H28a.57.57,0,0,1,.56.56Z" fill="#fff" stroke="#fff" stroke-miterlimit="10" stroke-width="0.5"/><path d="M26.68,15.24H12.28a.6.6,0,0,0-.63.56.6.6,0,0,0,.63.57h14.4a.6.6,0,0,0,.63-.57A.6.6,0,0,0,26.68,15.24Z" fill="#fff" stroke="#fff" stroke-miterlimit="10" stroke-width="0.5"/><path d="M26.68,17.86H12.28a.6.6,0,0,0-.63.56.6.6,0,0,0,.63.57h14.4a.6.6,0,0,0,.63-.57A.6.6,0,0,0,26.68,17.86Z" fill="#fff" stroke="#fff" stroke-miterlimit="10" stroke-width="0.5"/><path d="M26.68,20.48H12.28a.6.6,0,0,0-.63.56.6.6,0,0,0,.63.57h14.4a.6.6,0,0,0,.63-.57A.6.6,0,0,0,26.68,20.48Z" fill="#fff" stroke="#fff" stroke-miterlimit="10" stroke-width="0.5"/><path d="M26.68,23.24H12.28a.56.56,0,1,0,0,1.12h14.4a.56.56,0,1,0,0-1.12Z" fill="#fff" stroke="#fff" stroke-miterlimit="10" stroke-width="0.5"/><path d="M20.65,26H12.28a.57.57,0,1,0,0,1.13h8.37a.57.57,0,1,0,0-1.13Z" fill="#fff" stroke="#fff" stroke-miterlimit="10" stroke-width="0.5"/></g></svg>