<svg xmlns="http://www.w3.org/2000/svg" viewBox="0 0 41 41"><title>Henry-icons</title><g id="toolbar"><rect x="0.5" y="0.5" width="40" height="40" rx="1.6" fill="#e8e8e8" stroke="#fff" stroke-miterlimit="10"/><polygon points="15.95 7.52 14.16 7.52 15.38 4.21 12.03 8.48 13.8 8.45 12.54 11.73 15.95 7.52" fill="#3a3a3a"/><polygon points="29.58 7.52 27.79 7.52 29 4.21 25.65 8.48 27.43 8.45 26.16 11.73 29.58 7.52" fill="#3a3a3a"/><path d="M30.08,13.13h-4.9a1.42,1.42,0,0,0-1.41,1.42v9.88a3,3,0,0,1-2.94,3h0a3,3,0,0,1-3-3V14.55a1.64,1.64,0,0,0,0-.22.39.39,0,0,0,0-.14.93.93,0,0,0,0-.13,1.12,1.12,0,0,0-.05-.13.75.75,0,0,0-.07-.12,1.42,1.42,0,0,0-1.21-.68h-4.9a1.43,1.43,0,0,0-1.42,1.42v9.93A10.71,10.71,0,0,0,25,34.33,10.73,10.73,0,0,0,28.37,32a10.67,10.67,0,0,0,3.13-7.56V14.55A1.43,1.43,0,0,0,30.08,13.13ZM25,14.55a.2.2,0,0,1,.19-.2h4.9a.2.2,0,0,1,.2.2V17H25Zm-13.66,0a.19.19,0,0,1,.19-.2h4.9a.19.19,0,0,1,.16.09.21.21,0,0,1,0,.11V17H11.33Zm19,9.93a9.36,9.36,0,0,1-.75,3.69,9.57,9.57,0,0,1-2,3,9.47,9.47,0,0,1-13.4,0,9.41,9.41,0,0,1-2.77-6.7V18.19h5.29v6.29a4.18,4.18,0,0,0,4.18,4.18h0A4.22,4.22,0,0,0,25,24.43V18.19h5.29Z" fill="#3a3a3a"/></g></svg>