<svg xmlns="http://www.w3.org/2000/svg" viewBox="0 0 22.26 22.27">
  <title>magnifier</title>
  <g id="Layer_2" data-name="Layer 2">
    <g id="Layer_2-2" data-name="Layer 2">
      <path d="M2.24,2.25a7.66,7.66,0,0,1,11.58,10,.53.53,0,0,1,.62.8,2,2,0,0,1,1.89.52l5.35,5.35h0a2,2,0,0,1-2.81,2.81l-5.35-5.35h0A2,2,0,0,1,13,14.45a.53.53,0,0,1-.8-.62,7.66,7.66,0,0,1-10-11.58Zm5.42-.46a5.88,5.88,0,1,0,5.88,5.87A5.88,5.88,0,0,0,7.66,1.79Zm3.11,2.77a.26.26,0,1,1,.37-.37,4.91,4.91,0,0,1,1.44,3.47.27.27,0,0,1-.53,0,4.39,4.39,0,0,0-1.28-3.1Z" fill="#494949" fill-rule="evenodd"/>
    </g>
  </g>
</svg>
