<svg xmlns="http://www.w3.org/2000/svg" viewBox="0 0 40 40">
    <title>magnet</title>
    <g id="toolbar">
        <rect width="40" height="40" rx="1.6" fill="#6d6c6c"/>
        <polygon points="15.45 7.02 13.66 7.02 14.88 3.71 11.53 7.98 13.3 7.95 12.04 11.23 15.45 7.02" fill="#fff"/>
        <polygon points="29.08 7.02 27.29 7.02 28.5 3.71 25.15 7.98 26.93 7.95 25.66 11.23 29.08 7.02" fill="#fff"/>
        <path
            d="M29.58,12.63h-4.9a1.42,1.42,0,0,0-1.41,1.42v9.88a3,3,0,0,1-2.94,3h0a3,3,0,0,1-3-3V14.05a1.64,1.64,0,0,0,0-.22.39.39,0,0,0,0-.14.93.93,0,0,0,0-.13,1.12,1.12,0,0,0-.05-.13.75.75,0,0,0-.07-.12,1.42,1.42,0,0,0-1.21-.68H11A1.43,1.43,0,0,0,9.6,14.05V24a10.71,10.71,0,0,0,14.87,9.85,10.73,10.73,0,0,0,3.4-2.29A10.67,10.67,0,0,0,31,24V14.05A1.43,1.43,0,0,0,29.58,12.63Zm-5.09,1.42a.2.2,0,0,1,.19-.2h4.9a.2.2,0,0,1,.2.2v2.42H24.49Zm-13.66,0a.19.19,0,0,1,.19-.2h4.9a.19.19,0,0,1,.16.09.21.21,0,0,1,0,.11v2.42H10.83Zm19,9.93A9.36,9.36,0,0,1,29,27.67a9.57,9.57,0,0,1-2,3,9.47,9.47,0,0,1-13.4,0A9.41,9.41,0,0,1,10.83,24V17.69h5.29V24a4.18,4.18,0,0,0,4.18,4.18h0a4.22,4.22,0,0,0,4.15-4.23V17.69h5.29Z"
            fill="#fff"/>
    </g>
</svg>
