<svg xmlns="http://www.w3.org/2000/svg" viewBox="0 0 40 40">
  <title>pan</title>
  <g id="icon">
    <rect x="0.46" y="0.46" width="39.09" height="39.09" rx="1.6" fill="#fff" opacity="0"/>
    <rect x="0.46" y="0.46" width="39.09" height="39.09" rx="1.6" fill="none" stroke="#fff" stroke-miterlimit="10" stroke-width="0.98"/>
    <path d="M9.72,20.33a1.34,1.34,0,0,1,.55-.93,1.37,1.37,0,0,1,1.81.28l4.3,5a.49.49,0,0,0,.5.14.45.45,0,0,0,.33-.42V11.82a1.11,1.11,0,0,1,1-1.11A1.26,1.26,0,0,1,19,11a.93.93,0,0,1,.33.74v9.2a.46.46,0,0,0,.92,0V8.17a1.11,1.11,0,0,1,1-1.11,1.23,1.23,0,0,1,.79.28.91.91,0,0,1,.32.74V20.93a.47.47,0,0,0,.93,0V9.7A.91.91,0,0,1,23.54,9a1.23,1.23,0,0,1,.79-.28,1.08,1.08,0,0,1,1,1.11V20.93a.46.46,0,0,0,.92,0V13.3a.92.92,0,0,1,.32-.74,1.18,1.18,0,0,1,.74-.28h0a1.07,1.07,0,0,1,1,1.11V24.81a10.1,10.1,0,0,1-1.2,4.85c-1.25,2.18-2.91,3.28-5,3.28-5.69,0-7-3.23-7.95-5.36L14,27.26a53.46,53.46,0,0,0-4-5.87A1.33,1.33,0,0,1,9.72,20.33ZM9.35,22a52.81,52.81,0,0,1,3.84,5.64l.14.32c.92,2.22,2.49,5.92,8.78,5.92,2.4,0,4.39-1.3,5.77-3.75a10.77,10.77,0,0,0,1.34-5.31V13.39a2,2,0,0,0-1.84-2,1.66,1.66,0,0,0-1.16.28V9.79a2,2,0,0,0-1.85-2A1.7,1.7,0,0,0,23.22,8a1.93,1.93,0,0,0-.6-1.34,2,2,0,0,0-3.33,1.48V10a2.06,2.06,0,0,0-1.16-.28,2,2,0,0,0-1.85,2V23.15l-3.51-4.07a2.36,2.36,0,0,0-3-.42,2.31,2.31,0,0,0-.92,1.57A2.26,2.26,0,0,0,9.35,22Z" fill="#3a3a3a"/>
  </g>
</svg>
