<svg xmlns="http://www.w3.org/2000/svg" viewBox="0 0 40 40">
  <title>pdf_selected</title>
  <g id="pdf_selected" data-name="pdf_selected">
    <g id="pdf_selected">
      <rect width="40" height="40" rx="1.6" fill="#a3a3a3"/>
      <path d="M25.9,9.3V7.05H8.4A2.47,2.47,0,0,0,5.93,9.52V32.05H8.5" fill="none" stroke="#fff" stroke-miterlimit="10" stroke-width="1.06"/>
      <path d="M25.9,9.3H11A2.46,2.46,0,0,0,8.5,11.77V34.3h20V9.3Z" fill="none" stroke="#fff" stroke-miterlimit="10" stroke-width="1.06"/>
      <path d="M23.31,7V4.7H5.81A2.47,2.47,0,0,0,3.34,7.17V29.71H5.91" fill="none" stroke="#fff" stroke-miterlimit="10" stroke-width="1.06"/>
      <g>
        <rect x="13.42" y="21.29" width="23.31" height="8.29" fill="#7c7c7c"/>
        <path d="M16.56,28.64a7.42,7.42,0,0,0,.07-1.13V23.36a7.92,7.92,0,0,0-.07-1.12c.36,0,.64,0,1.13,0h1.68c1.52,0,2.35.72,2.35,2.06a2.08,2.08,0,0,1-2.36,2.17H18.15v1a9.52,9.52,0,0,0,.06,1.15Zm2.73-3.44a.76.76,0,0,0,.85-.83c0-.53-.29-.8-.85-.8H18.15V25.2Z" fill="#e5e5e5"/>
        <path d="M22.48,23.37a7,7,0,0,0-.07-1.13c.3,0,.5,0,1.13,0h1.6a3.12,3.12,0,0,1,2.22.75,3.23,3.23,0,0,1,.84,2.38,3.38,3.38,0,0,1-.89,2.48,3,3,0,0,1-2.15.76H23.54c-.59,0-.8,0-1.13,0a6.7,6.7,0,0,0,.07-1.12ZM25,27.3a1.51,1.51,0,0,0,1.13-.4,2.12,2.12,0,0,0,.48-1.48A1.93,1.93,0,0,0,26.19,24,1.57,1.57,0,0,0,25,23.61H24V27.3Z" fill="#e5e5e5"/>
        <path d="M30.55,27.31a8.35,8.35,0,0,0,.06,1.33H29A7.09,7.09,0,0,0,29,27.33v-4A7.25,7.25,0,0,0,29,22.24c.31,0,.53,0,1.12,0h2.22a8.23,8.23,0,0,0,1.28-.06v1.46a9.63,9.63,0,0,0-1.28-.06H30.55v1.26H32a9.76,9.76,0,0,0,1.23-.05v1.42A9.59,9.59,0,0,0,32,26.18H30.55Z" fill="#e5e5e5"/>
      </g>
    </g>
  </g>
</svg>
