<svg xmlns="http://www.w3.org/2000/svg" viewBox="0 0 40.07 40.07">
  <title>pdf_active</title>
  <g id="pdf_acive" data-name="pdf_acive">
    <g id="icon">
      <rect x="0.49" y="0.49" width="39.09" height="39.09" rx="1.6" fill="#fff" opacity="0"/>
      <rect x="0.49" y="0.49" width="39.09" height="39.09" rx="1.6" fill="none" stroke="#fff" stroke-miterlimit="10" stroke-width="0.98"/>
      <g>
        <path d="M25.93,9.33V7.09H8.43A2.47,2.47,0,0,0,6,9.55V32.09H8.53" fill="none" stroke="#3a3a3a" stroke-miterlimit="10" stroke-width="1.06"/>
        <polyline points="8.53 32.09 8.53 34.33 28.5 34.33 28.5 9.33 25.93 9.33" fill="none" stroke="#3a3a3a" stroke-miterlimit="10" stroke-width="1.06"/>
        <path d="M8.53,32.09V11.8A2.48,2.48,0,0,1,11,9.33H25.93" fill="none" stroke="#3a3a3a" stroke-miterlimit="10" stroke-width="1.06"/>
      </g>
      <path d="M23.34,7V4.74H5.84A2.47,2.47,0,0,0,3.37,7.21V29.74H5.94" fill="none" stroke="#3a3a3a" stroke-miterlimit="10" stroke-width="1.06"/>
      <g>
        <rect x="13.45" y="21.33" width="23.31" height="8.29" fill="#7c7c7c"/>
        <path d="M16.6,28.68a9.46,9.46,0,0,0,.06-1.14V23.39a9.66,9.66,0,0,0-.06-1.11l1.12,0H19.4c1.52,0,2.36.73,2.36,2.06a2.09,2.09,0,0,1-2.36,2.18H18.18v1a9.5,9.5,0,0,0,.07,1.16Zm2.73-3.45a.76.76,0,0,0,.85-.82.75.75,0,0,0-.85-.81H18.18v1.63Z" fill="#e5e5e5"/>
        <path d="M22.51,23.4a6.86,6.86,0,0,0-.07-1.12c.31,0,.5,0,1.13,0h1.61a3.07,3.07,0,0,1,2.21.76,3.19,3.19,0,0,1,.85,2.37,3.4,3.4,0,0,1-.89,2.48,3,3,0,0,1-2.16.77H23.57c-.59,0-.8,0-1.12,0a8.25,8.25,0,0,0,.06-1.12Zm2.54,3.94a1.5,1.5,0,0,0,1.13-.41,2,2,0,0,0,.48-1.47A2,2,0,0,0,26.22,24,1.57,1.57,0,0,0,25,23.64H24v3.7Z" fill="#e5e5e5"/>
        <path d="M30.58,27.34a8.57,8.57,0,0,0,.06,1.34H29a8.6,8.6,0,0,0,.06-1.31v-4A7.12,7.12,0,0,0,29,22.28c.32,0,.53,0,1.12,0h2.22a8.38,8.38,0,0,0,1.29-.06V23.7a10.27,10.27,0,0,0-1.28-.05H30.58V24.9H32a9.76,9.76,0,0,0,1.23,0v1.42A9.86,9.86,0,0,0,32,26.22H30.58Z" fill="#e5e5e5"/>
      </g>
    </g>
  </g>
</svg>
