<svg xmlns="http://www.w3.org/2000/svg" viewBox="0 0 40 40"><title>Henry-icons</title><g id="toolbar"><rect width="40" height="40" rx="1.6" fill="#6d6c6c"/><path d="M23.41,21.76,20.5,19.92V16.44a.66.66,0,0,0-1.31,0v3.84h0a.22.22,0,0,0,0,.08v.05a.64.64,0,0,1,0,.07s0,0,0,.05l0,.06,0,0,0,.05,0,.05,0,0a.18.18,0,0,0,.07,0h0l3.21,2a.66.66,0,0,0,.35.11.66.66,0,0,0,.36-1.22Z" fill="#fff" stroke="#fff" stroke-miterlimit="10" stroke-width="0.5"/><path d="M11.85,19.15a8.55,8.55,0,0,1,17,.94h1.95a.14.14,0,0,1,.09.24L28,22.93a.13.13,0,0,1-.18,0l-2.92-2.6a.14.14,0,0,1,.09-.24H27a6.61,6.61,0,1,0-1.44,4.15.32.32,0,0,1,.42-.06L27,25a.31.31,0,0,1,.06.43,8.55,8.55,0,0,1-15.22-6.25Z" fill="#fff" stroke="#fff" stroke-miterlimit="10" stroke-width="0.5"/></g></svg>