<svg xmlns="http://www.w3.org/2000/svg" viewBox="0 0 41 41"><title>Henry-icons</title><g id="toolbar"><rect x="0.5" y="0.5" width="40" height="40" rx="1.6" fill="#e8e8e8" stroke="#fff" stroke-miterlimit="10"/><path d="M23.91,22.26,21,20.42V16.94a.66.66,0,0,0-1.31,0v3.84h0a.22.22,0,0,0,0,.08v.05a.64.64,0,0,1,0,.07s0,0,0,.05l0,.06,0,0,0,.05,0,.05,0,0a.18.18,0,0,0,.07,0h0l3.21,2a.66.66,0,0,0,.35.11.66.66,0,0,0,.36-1.22Z" fill="#4f4f4f"/><path d="M12.35,19.65a8.55,8.55,0,0,1,17,.94h1.95a.14.14,0,0,1,.09.24l-2.92,2.6a.13.13,0,0,1-.18,0l-2.92-2.6a.14.14,0,0,1,.09-.24h1.95A6.61,6.61,0,1,0,26,24.74a.32.32,0,0,1,.42-.06l1.08.79a.31.31,0,0,1,.06.43,8.55,8.55,0,0,1-15.22-6.25Z" fill="#4f4f4f"/></g></svg>