<svg xmlns="http://www.w3.org/2000/svg" viewBox="0 0 40 40">
    <title>ungroup_inactive</title>
    <g id="toolbar">
        <path d="M30.3,16.48H25.5V12.05h1V8.25H22.69V9.81H10.07V8.25H6.28v3.8h1V22.88h-1v3.79h3.8V25.13h6.27v3.18h-.89v3.44h3.43V30.34H30.3v1.41h3.43V28.31h-.89v-9.8h.89V15.08H30.3ZM23.83,9.39h1.52v1.53H23.83Zm-16.42,0H8.93v1.53H7.41ZM8.94,25.54H7.4V24H8.94ZM10.07,24V22.88H8.39V12.05h1.68V10.94H22.69v1.11h1.68V22.88H22.69V24H10.07Zm15.28,0v1.54H23.83V24Zm-7.5,6.71H16.47V29.33h1.38Zm12.45-1.4H18.88v-1H17.36V25.13h5.33v1.55h3.79v-3.8h-1V17.51h4.8v1h1.51v9.8H30.3Zm2.4,1.4H31.32V29.33H32.7ZM31.32,16.11H32.7v1.38H31.32Z" fill="#3a3a3a" opacity="0.5"/>
    </g>
    <g id="icon">
        <rect x="0.46" y="0.46" width="39.09" height="39.09" rx="1.6" fill="#fff" opacity="0"/>
        <rect x="0.46" y="0.46" width="39.09" height="39.09" rx="1.6" fill="none" stroke="#fff" stroke-miterlimit="10" stroke-width="0.98"/>
    </g>
</svg>
