<svg xmlns="http://www.w3.org/2000/svg" viewBox="0 0 86.44 86.44"><title>Henry-icons</title><g id="toolbar"><rect width="86.44" height="86.44" rx="1.6" fill="#6d6c6c"/><path d="M56,30.85V66.14a1.92,1.92,0,1,1-3.83,0V30.85H44.89V66.14a1.92,1.92,0,1,1-3.83,0V30.85H33.83V66.14a1.92,1.92,0,1,1-3.83,0V30.85H23V73.21a3.71,3.71,0,0,0,3.71,3.71H59.2a3.72,3.72,0,0,0,3.72-3.71V30.85Z" fill="#fff"/><path d="M64.31,17.78H56.53V13.73A3.71,3.71,0,0,0,52.82,10H33.13a3.71,3.71,0,0,0-3.71,3.71v4.05H21.64a3.71,3.71,0,0,0-3.71,3.71v2.79A3.71,3.71,0,0,0,21.64,28H64.31A3.71,3.71,0,0,0,68,24.28V21.49A3.71,3.71,0,0,0,64.31,17.78Z" fill="#fff"/></g></svg>