<svg xmlns="http://www.w3.org/2000/svg" viewBox="0 0 87.44 87.44">
  <title>Trash</title>
  <g id="trash">
    <rect x="0.46" y="0.46" width="86.06" height="86.06" rx="3.51" fill="#fff" opacity="0"/>
    <rect x="0.46" y="0.46" width="86.06" height="86.06" rx="3.51" fill="none" stroke="#fff" stroke-miterlimit="10"/>
    <g>
      <path d="M56.45,31.35V66.64a1.92,1.92,0,1,1-3.83,0V31.35H45.39V66.64a1.92,1.92,0,1,1-3.83,0V31.35H34.33V66.64a1.92,1.92,0,1,1-3.83,0V31.35h-7V73.71a3.71,3.71,0,0,0,3.71,3.71H59.7a3.72,3.72,0,0,0,3.72-3.71V31.35Z" fill="#4c4b4b"/>
      <path d="M64.81,18.28H57V14.23a3.71,3.71,0,0,0-3.71-3.71H33.63a3.71,3.71,0,0,0-3.71,3.71v4.05H22.14A3.71,3.71,0,0,0,18.43,22v2.79a3.71,3.71,0,0,0,3.71,3.71H64.81a3.71,3.71,0,0,0,3.71-3.71V22A3.71,3.71,0,0,0,64.81,18.28Z" fill="#4c4b4b"/>
    </g>
  </g>
</svg>
