<svg xmlns="http://www.w3.org/2000/svg" viewBox="0 0 40 40"><title>Henry-icons</title><g id="toolbar"><rect width="40" height="40" rx="1.6" fill="#6d6c6c"/><path d="M23.93,21.76,21,19.92V16.44a.66.66,0,0,0-1.32,0v3.84h0a.22.22,0,0,0,0,.08v.05l0,.07a.43.43,0,0,1,0,.05l0,.06s0,0,0,0,0,0,.05.05a.1.1,0,0,0,0,.05l0,0,.06,0h0l3.2,2a.69.69,0,0,0,.36.11.66.66,0,0,0,.35-1.22Z" fill="#fff" stroke="#fff" stroke-miterlimit="10" stroke-width="0.5"/><path d="M29.18,19.15a8.55,8.55,0,0,0-17,.94H10.19a.14.14,0,0,0-.09.24L13,22.93a.14.14,0,0,0,.19,0l2.91-2.6a.14.14,0,0,0-.09-.24H14.08a6.61,6.61,0,1,1,1.44,4.15.32.32,0,0,0-.42-.06L14,25a.31.31,0,0,0-.07.43,8.56,8.56,0,0,0,15.23-6.25Z" fill="#fff" stroke="#fff" stroke-miterlimit="10" stroke-width="0.5"/></g></svg>