<svg xmlns="http://www.w3.org/2000/svg" viewBox="0 0 40 40">
    <title>undo_active</title>
    <g id="toolbar">
        <g>
            <path d="M23.68,22.14,20.25,20v-4.1a.77.77,0,0,0-.78-.77.76.76,0,0,0-.77.77v4.53h0a.28.28,0,0,0,0,.09v.06l0,.08s0,.05,0,.07l0,.07,0,.06.05.06.05.05A.1.1,0,0,0,19,21l.07.06h0l3.78,2.4a.81.81,0,0,0,.42.12.79.79,0,0,0,.66-.36A.78.78,0,0,0,23.68,22.14Z" fill="#4f4f4f"/>
            <path d="M29.87,19.05A10.09,10.09,0,0,0,9.76,20.16H7.46a.17.17,0,0,0-.11.29l3.44,3.07a.18.18,0,0,0,.22,0l3.44-3.07a.17.17,0,0,0-.11-.29H12.05a7.79,7.79,0,1,1,1.7,4.91.36.36,0,0,0-.5-.08L12,25.92a.37.37,0,0,0-.08.51,10.1,10.1,0,0,0,18-7.38Z" fill="#4f4f4f"/>
        </g>
    </g>
    <g id="icon">
        <rect x="0.46" y="0.46" width="39.09" height="39.09" rx="1.6" fill="#fff" opacity="0"/>
        <rect x="0.46" y="0.46" width="39.09" height="39.09" rx="1.6" fill="none" stroke="#fff" stroke-miterlimit="10" stroke-width="0.98"/>
    </g>
</svg>
