<svg xmlns="http://www.w3.org/2000/svg" viewBox="0 0 41 41"><title>Henry-icons</title><g id="toolbar"><rect x="0.5" y="0.5" width="40" height="40" rx="1.6" fill="#e8e8e8" stroke="#fff" stroke-miterlimit="10"/><path d="M24.43,22.26l-2.9-1.84V16.94a.66.66,0,0,0-1.32,0v3.84h0a.22.22,0,0,0,0,.08v.05l0,.07a.43.43,0,0,1,0,.05l0,.06s0,0,0,0,0,0,.05.05a.1.1,0,0,0,0,.05l0,0,.06,0h0l3.2,2a.69.69,0,0,0,.36.11.66.66,0,0,0,.35-1.22Z" fill="#4f4f4f"/><path d="M29.68,19.65a8.55,8.55,0,0,0-17,.94H10.69a.14.14,0,0,0-.09.24l2.91,2.6a.14.14,0,0,0,.19,0l2.91-2.6a.14.14,0,0,0-.09-.24H14.58A6.61,6.61,0,1,1,16,24.74a.32.32,0,0,0-.42-.06l-1.08.79a.31.31,0,0,0-.07.43,8.56,8.56,0,0,0,15.23-6.25Z" fill="#4f4f4f"/></g></svg>