<svg xmlns="http://www.w3.org/2000/svg" viewBox="0 0 41 41"><title>Henry-icons</title><g id="toolbar"><rect x="0.5" y="0.5" width="40" height="40" rx="1.6" fill="#e8e8e8" stroke="#fff" stroke-miterlimit="10"/><path d="M30.66,17.58h-4.8V13.15h1V9.35H23.06V10.9H10.43V9.35H6.64v3.8h1V24h-1v3.8h3.8V26.22H16.7V29.4h-.89v3.44h3.43v-1.4H30.66v1.4h3.43V29.4H33.2V19.61h.89V16.18H30.66Zm-6.47-7.1h1.52V12H24.19Zm-16.42,0H9.29V12H7.77ZM9.3,26.64H7.76V25.1H9.3Zm1.13-1.55V24H8.75V13.15h1.68V12H23.06v1.12h1.67V24H23.06v1.12H10.43Zm15.28,0v1.54H24.19V25.1Zm-7.5,6.72H16.83V30.43h1.38Zm12.45-1.4H19.24v-1H17.72V26.22h5.34v1.55h3.78V24h-1V18.61h4.8v1h1.51V29.4H30.66Zm2.4,1.4H31.68V30.43h1.38ZM31.68,17.2h1.38v1.38H31.68Z" fill="#3a3a3a"/></g></svg>