<svg xmlns="http://www.w3.org/2000/svg" viewBox="0 0 40 40"><title>Henry-icons</title><g id="toolbar"><rect width="40" height="40" rx="1.6" fill="#6d6c6c"/><path d="M30.16,17.08h-4.8V12.65h1V8.85H22.56V10.4H9.93V8.85H6.14v3.8h1V23.47h-1v3.8h3.8V25.72H16.2V28.9h-.89v3.44h3.43v-1.4H30.16v1.4h3.43V28.9H32.7V19.11h.89V15.68H30.16ZM23.69,10h1.52v1.53H23.69ZM7.27,10H8.79v1.53H7.27ZM8.8,26.14H7.26V24.6H8.8Zm1.13-1.55V23.47H8.25V12.65H9.93V11.53H22.56v1.12h1.67V23.47H22.56v1.12H9.93Zm15.28,0v1.54H23.69V24.6Zm-7.5,6.72H16.33V29.93h1.38Zm12.45-1.4H18.74v-1H17.22V25.72h5.34v1.55h3.78v-3.8h-1V18.11h4.8v1h1.51V28.9H30.16Zm2.4,1.4H31.18V29.93h1.38ZM31.18,16.7h1.38v1.38H31.18Z" fill="#fff" stroke="#fff" stroke-miterlimit="10" stroke-width="0.5"/></g></svg>