<svg xmlns="http://www.w3.org/2000/svg" viewBox="0 0 40.07 40.07">
  <title>unlock_active</title>
  <g id="Layer_2" data-name="Layer 2">
    <g id="icon">
      <rect x="0.49" y="0.49" width="39.09" height="39.09" rx="1.6" fill="#fff" opacity="0.02"/>
      <rect x="0.49" y="0.49" width="39.09" height="39.09" rx="1.6" fill="none" stroke="#fff" stroke-miterlimit="10" stroke-width="0.98"/>
      <path d="M25,16.24H14.49V13.48a5.13,5.13,0,0,1,5.13-5.12h.22A5.1,5.1,0,0,1,24.72,12h2.66a7.68,7.68,0,0,0-7.54-6.22h-.22a7.69,7.69,0,0,0-7.69,7.69V16.4s-1.35,1.12-1.35,2V29.64a2.19,2.19,0,0,0,2.19,2.19H26.68a2.19,2.19,0,0,0,2.2-2.19V18.43c0-.91-1.35-2-1.35-2Zm-4,7.9v2.21a1.28,1.28,0,1,1-2.55,0V24.14a2.07,2.07,0,1,1,3.35-1.63A2.06,2.06,0,0,1,21,24.14Z" fill="none" stroke="#3a3a3a" stroke-miterlimit="10"/>
      <path d="M35.31,13.24,30,13.65" fill="none" stroke="#3a3a3a" stroke-linecap="round" stroke-miterlimit="10" stroke-width="0.78"/>
      <path d="M33.18,16.09l-3.35-.6" fill="none" stroke="#3a3a3a" stroke-linecap="round" stroke-miterlimit="10" stroke-width="0.78"/>
      <path d="M29.64,12.16l3.15-1.32" fill="none" stroke="#3a3a3a" stroke-linecap="round" stroke-miterlimit="10" stroke-width="0.78"/>
    </g>
  </g>
</svg>
