<svg xmlns="http://www.w3.org/2000/svg" viewBox="0 0 40 40">
  <title>unlock_selected</title>
  <g id="Layer_2" data-name="Layer 2">
    <g id="icon">
      <rect width="40" height="40" rx="1.6" fill="#a3a3a3"/>
      <path d="M35.28,13.2,30,13.61" fill="none" stroke="#fff" stroke-linecap="round" stroke-miterlimit="10" stroke-width="0.78"/>
      <path d="M33.15,16.06l-3.36-.6" fill="none" stroke="#fff" stroke-linecap="round" stroke-miterlimit="10" stroke-width="0.78"/>
      <path d="M29.61,12.13l3.14-1.32" fill="none" stroke="#fff" stroke-linecap="round" stroke-miterlimit="10" stroke-width="0.78"/>
      <path d="M24.93,16.2H14.46V13.45a5.13,5.13,0,0,1,5.12-5.13h.23A5.12,5.12,0,0,1,24.69,12h2.66a7.69,7.69,0,0,0-7.54-6.22h-.23a7.68,7.68,0,0,0-7.68,7.69v2.92s-1.36,1.11-1.36,2V29.6a2.2,2.2,0,0,0,2.2,2.2H26.65a2.2,2.2,0,0,0,2.2-2.2V18.4c0-.92-1.36-2-1.36-2Zm-4,7.91v2.21a1.28,1.28,0,0,1-2.55,0V24.11a2.07,2.07,0,1,1,2.55,0Z" fill="none" stroke="#fff" stroke-miterlimit="10"/>
    </g>
  </g>
</svg>
