<svg xmlns="http://www.w3.org/2000/svg" viewBox="0 0 40 40"><title>Henry-icons</title><g id="toolbar"><rect width="40" height="40" rx="1.6" fill="#6d6c6c"/><path d="M13.16,18.71a5.64,5.64,0,1,1,5.64,5.64,5.64,5.64,0,0,1-5.64-5.64ZM28.55,27.3l-4.08-4.08a7.24,7.24,0,1,0-1.13,1.13l4.09,4.08a.78.78,0,0,0,1.12-.19A.85.85,0,0,0,28.55,27.3Z" fill="#fff" stroke="#fff" stroke-miterlimit="10" stroke-width="0.5"/><path d="M20.82,15.81h-4a.79.79,0,0,0-.81.8v4a.79.79,0,0,0,.81.81h4a.79.79,0,0,0,.8-.81v-4A.78.78,0,0,0,20.82,15.81Zm-2.82,4h-.4V17.42H20v2.41H18Z" fill="#fff" stroke="#fff" stroke-miterlimit="10" stroke-width="0.5"/></g></svg>