<svg xmlns="http://www.w3.org/2000/svg" viewBox="0 0 40 40">
    <title>zoom-selected_active</title>
    <g id="icon">
        <rect x="0.46" y="0.46" width="39.09" height="39.09" rx="1.6" fill="#fff" opacity="0"/>
        <rect x="0.46" y="0.46" width="39.09" height="39.09" rx="1.6" fill="none" stroke="#fff" stroke-miterlimit="10" stroke-width="0.98"/>
        <g>
            <path d="M11.88,18.47a6.58,6.58,0,1,1,6.58,6.58,6.59,6.59,0,0,1-6.58-6.58Zm18,10-4.77-4.76a8.44,8.44,0,1,0-1.31,1.31l4.76,4.77a.94.94,0,0,0,1.32-.22A1,1,0,0,0,29.84,28.5Z" fill="#3a3a3a"/>
            <path d="M20.62,15.81h-4a.79.79,0,0,0-.81.8v4a.79.79,0,0,0,.81.81h4a.79.79,0,0,0,.8-.81v-4A.78.78,0,0,0,20.62,15.81Zm-2.82,4h-.4V17.42h2.41v2.41h-2Z" fill="#3a3a3a"/>
        </g>
    </g>
</svg>
