<svg xmlns="http://www.w3.org/2000/svg" viewBox="0 0 40 40">
    <title>zoom-extent_active</title>
    <g id="icon">
        <rect x="0.46" y="0.46" width="39.09" height="39.09" rx="1.6" fill="#fff" opacity="0"/>
        <rect x="0.46" y="0.46" width="39.09" height="39.09" rx="1.6" fill="none" stroke="#fff" stroke-miterlimit="10" stroke-width="0.98"/>
        <g>
            <path d="M11.88,18.47a6.58,6.58,0,1,1,6.58,6.58,6.59,6.59,0,0,1-6.58-6.58Zm18,10-4.77-4.76a8.44,8.44,0,1,0-1.31,1.31l4.76,4.77a.94.94,0,0,0,1.32-.22A1,1,0,0,0,29.84,28.5Z" fill="#3a3a3a"/>
            <path d="M17.4,18.6l-1.16,1.16-.69-.69a0,0,0,0,1,0,0s-.07,0-.07,0L15.2,21l-.09.62v0s0,.06.09.06l2.51-.31c.06,0,.06,0,0-.1l-.69-.69.41-.4.44-.44.28-.29.19-.18-.82-.82Z" fill="#3a3a3a"/>
            <path d="M21.75,15.15s0,0,0-.06a0,0,0,0,0-.06,0l-.57.06-1.94.25c-.06,0-.06,0,0,.1l.69.69-.41.4L19,17l-.28.28-.16.19.82.82.19-.19L20.69,17l.69.69s0,0,.06,0v0l.22-1.82Z" fill="#3a3a3a"/>
        </g>
    </g>
</svg>
