<svg xmlns="http://www.w3.org/2000/svg" viewBox="0 0 40 40"><title>Henry-icons</title><g id="toolbar"><rect width="40" height="40" rx="1.6" fill="#6d6c6c"/><path d="M13.16,18.71a5.64,5.64,0,1,1,5.64,5.64,5.64,5.64,0,0,1-5.64-5.64ZM28.55,27.3l-4.08-4.08a7.24,7.24,0,1,0-1.13,1.13l4.09,4.08a.78.78,0,0,0,1.12-.19A.85.85,0,0,0,28.55,27.3Z" fill="#fff" stroke="#fff" stroke-miterlimit="10" stroke-width="0.5"/><path d="M17.89,18.81l-1,1-.59-.59a0,0,0,0,1,0,0s-.05,0-.05,0L16,20.83l-.08.54v0s0,.06.08.06l2.15-.27c.05,0,.05,0,0-.08l-.59-.59.34-.35.38-.38.24-.24.16-.16-.7-.7Z" fill="#fff" stroke="#fff" stroke-miterlimit="10" stroke-width="0.5"/><path d="M21.62,15.86s0,0,0,0a0,0,0,0,0-.06,0l-.48,0-1.67.21c-.05,0-.05,0,0,.09l.59.59-.35.35-.38.37-.24.24-.13.16.7.7.16-.16,1-1,.59.59s0,0,.06,0v0l.18-1.56Z" fill="#fff" stroke="#fff" stroke-miterlimit="10" stroke-width="0.5"/></g></svg>