<svg xmlns="http://www.w3.org/2000/svg" viewBox="0 0 41 41"><title>Henry-icons</title><g id="toolbar"><rect x="0.5" y="0.5" width="40" height="40" rx="1.6" fill="#e8e8e8" stroke="#fff" stroke-miterlimit="10"/><path d="M13.66,19.21a5.64,5.64,0,1,1,5.64,5.64,5.64,5.64,0,0,1-5.64-5.64ZM29.05,27.8,25,23.72a7.24,7.24,0,1,0-1.13,1.13l4.09,4.08a.78.78,0,0,0,1.12-.19A.85.85,0,0,0,29.05,27.8Z" fill="#3a3a3a"/><path d="M21.32,16.31h-4a.79.79,0,0,0-.81.8v4a.79.79,0,0,0,.81.81h4a.79.79,0,0,0,.8-.81v-4A.78.78,0,0,0,21.32,16.31Zm-2.82,4h-.4V17.92h2.41v2.41h-2Z" fill="#3a3a3a"/></g></svg>