<svg xmlns="http://www.w3.org/2000/svg" viewBox="0 0 41 41"><title>Henry-icons</title><g id="toolbar"><rect x="0.5" y="0.5" width="40" height="40" rx="1.6" fill="#e8e8e8" stroke="#fff" stroke-miterlimit="10"/><path d="M13.66,19.21a5.64,5.64,0,1,1,5.64,5.64,5.64,5.64,0,0,1-5.64-5.64ZM29.05,27.8,25,23.72a7.24,7.24,0,1,0-1.13,1.13l4.09,4.08a.78.78,0,0,0,1.12-.19A.85.85,0,0,0,29.05,27.8Z" fill="#3a3a3a"/><path d="M18.39,19.31l-1,1-.59-.59a0,0,0,0,1,0,0s-.05,0-.05,0l-.22,1.61-.08.54v0s0,.06.08.06l2.15-.27c.05,0,.05,0,0-.08L18.1,21l.34-.35.38-.38.24-.24.16-.16-.7-.7Z" fill="#3a3a3a"/><path d="M22.12,16.36s0,0,0-.05a0,0,0,0,0-.06,0l-.48.05-1.67.21c-.05,0-.05,0,0,.09l.59.59-.35.35-.38.37-.24.24-.13.16.7.7.16-.16,1-1,.59.59s0,0,.06,0v0L22,16.92Z" fill="#3a3a3a"/></g></svg>