<svg xmlns="http://www.w3.org/2000/svg" viewBox="0 0 41 41"><title>Henry-icons</title><g id="toolbar"><rect x="0.5" y="0.5" width="40" height="40" rx="1.6" fill="#e8e8e8" stroke="#fff" stroke-miterlimit="10"/><path d="M13.66,19.21a5.64,5.64,0,1,1,5.64,5.64,5.64,5.64,0,0,1-5.64-5.64ZM29.05,27.8,25,23.72a7.24,7.24,0,1,0-1.13,1.13l4.09,4.08a.78.78,0,0,0,1.12-.19A.85.85,0,0,0,29.05,27.8Z" fill="#3a3a3a"/><path d="M18.57,19.89H15.89V18.34h2.68V15.22H20.1v3.12h2.78v1.55H20.1V23H18.57Z" fill="#3a3a3a"/></g></svg>